<svg width="101" height="101" viewBox="0 0 101 101" fill="none" xmlns="http://www.w3.org/2000/svg">
<g clip-path="url(#clip0_17_1131)">
<path d="M77.0625 0.5H23.9375C10.9933 0.5 0.5 10.9933 0.5 23.9375V77.0625C0.5 90.0067 10.9933 100.5 23.9375 100.5H77.0625C90.0067 100.5 100.5 90.0067 100.5 77.0625V23.9375C100.5 10.9933 90.0067 0.5 77.0625 0.5Z" fill="#242938"/>
<mask id="mask0_17_1131" style="mask-type:luminance" maskUnits="userSpaceOnUse" x="24" y="11" width="53" height="79">
<path d="M24.3281 11.4375H76.4219V89.5625H24.3281V11.4375Z" fill="white"/>
</mask>
<g mask="url(#mask0_17_1131)">
<path d="M37.3543 89.5625C44.5418 89.5625 50.375 83.7293 50.375 76.5418V63.5207H37.3543C30.1668 63.5207 24.3332 69.3543 24.3332 76.5418C24.3332 83.7293 30.1668 89.5625 37.3543 89.5625Z" fill="#0ACF83"/>
<path d="M24.3332 50.5C24.3332 43.3125 30.1668 37.4793 37.3543 37.4793H50.375V63.5207H37.3543C30.1668 63.5207 24.3332 57.6875 24.3332 50.5Z" fill="#A259FF"/>
<path d="M24.3332 24.4582C24.3332 17.2707 30.1668 11.4375 37.3543 11.4375H50.375V37.4793H37.3543C30.1668 37.4793 24.3332 31.6457 24.3332 24.4582Z" fill="#F24E1E"/>
<path d="M50.375 11.4375H63.3957C70.5832 11.4375 76.4168 17.2707 76.4168 24.4582C76.4168 31.6457 70.5832 37.4793 63.3957 37.4793H50.375V11.4375Z" fill="#FF7262"/>
<path d="M76.4168 50.5C76.4168 57.6875 70.5832 63.5207 63.3957 63.5207C56.2082 63.5207 50.375 57.6875 50.375 50.5C50.375 43.3125 56.2082 37.4793 63.3957 37.4793C70.5832 37.4793 76.4168 43.3125 76.4168 50.5Z" fill="#1ABCFE"/>
</g>
</g>
<defs>
<clipPath id="clip0_17_1131">
<rect width="100" height="100" fill="white" transform="translate(0.5 0.5)"/>
</clipPath>
</defs>
</svg>
