<svg width="101" height="101" viewBox="0 0 101 101" fill="none" xmlns="http://www.w3.org/2000/svg">
<g clip-path="url(#clip0_17_1135)">
<path d="M83.8984 0.5H17.1016C7.93277 0.5 0.5 8.11116 0.5 17.5V83.34C0.5 92.7288 7.93277 100.34 17.1016 100.34H83.8984C93.0672 100.34 100.5 92.7288 100.5 83.34V17.5C100.5 8.11116 93.0672 0.5 83.8984 0.5Z" fill="#330000"/>
<path d="M48.9586 60.416H33.4625L30.3094 70.4452C30.2665 70.6281 30.1626 70.79 30.0156 70.9029C29.8687 71.0158 29.6878 71.0726 29.5043 71.0636H21.6555C21.2081 71.0636 21.0516 70.8116 21.186 70.3076L34.6028 30.7404C34.7369 30.3284 34.871 29.859 35.0051 29.3324C35.1809 28.4156 35.2707 27.4844 35.2735 26.5504C35.2643 26.485 35.2702 26.4184 35.2905 26.3558C35.3109 26.2932 35.3452 26.2363 35.3908 26.1896C35.4363 26.1429 35.4919 26.1077 35.553 26.0868C35.6141 26.0659 35.6792 26.0599 35.743 26.0692H46.4094C46.7219 26.0692 46.9008 26.1838 46.9461 26.4132L62.1738 70.3764C62.308 70.835 62.1738 71.0641 61.7715 71.0636H53.0504C52.9007 71.0803 52.7501 71.0408 52.6267 70.9524C52.5034 70.8639 52.4156 70.7326 52.3797 70.5828L48.9586 60.416ZM35.8774 51.7608H46.4766L46.3254 51.25L46.0828 50.4412L45.9098 49.8732L45.6336 48.9788L45.0465 47.096L44.5301 45.4268L43.1891 41.0788C42.8553 39.9979 42.535 38.9128 42.2281 37.8236L41.9828 36.9396L41.6961 35.8944L41.2586 34.2744L41.1766 33.9692H41.1098C40.774 35.618 40.3653 37.2504 39.8848 38.8612L38.8895 42.1396L38.3418 43.9508L37.7891 45.7844C37.6893 46.1156 37.5897 46.443 37.4903 46.7668L37.1934 47.726L36.8981 48.6628L36.6043 49.5764L36.3121 50.4672C36.2153 50.7605 36.1185 51.0498 36.0219 51.3352L35.8774 51.7608ZM71.2293 33.3508C70.5451 33.3788 69.8629 33.2587 69.2271 32.9983C68.5914 32.7379 68.0164 32.343 67.5399 31.8396C67.0649 31.314 66.6959 30.6976 66.4541 30.0256C66.2124 29.3537 66.1025 28.6395 66.1309 27.924C66.1066 27.2156 66.2284 26.51 66.4885 25.8531C66.7486 25.1963 67.141 24.603 67.6403 24.112C68.6032 23.1654 69.8855 22.6357 71.2203 22.6332L71.3633 22.6348C72.9735 22.6348 74.237 23.127 75.1539 24.1116C75.6166 24.6233 75.9762 25.2234 76.2122 25.8776C76.4481 26.5318 76.5557 27.2272 76.5289 27.924C76.5573 28.6424 76.4443 29.3593 76.1965 30.0321C75.9487 30.7048 75.5713 31.3197 75.0867 31.84C74.5977 32.3335 74.0171 32.7219 73.3793 32.9822C72.7414 33.2426 72.0592 33.3697 71.3727 33.356L71.2293 33.3508ZM66.6004 70.3764V37.5412C66.6001 37.1289 66.7791 36.9228 67.1371 36.9228H75.3887C75.7462 36.9228 75.9251 37.1289 75.9254 37.5412V70.3764C75.9254 70.835 75.7465 71.0641 75.3887 71.0636H67.2043C66.8231 71.0636 66.6224 70.858 66.6024 70.4468L66.6004 70.3764Z" fill="#FF9A00"/>
</g>
<defs>
<clipPath id="clip0_17_1135">
<rect width="100" height="100" fill="white" transform="translate(0.5 0.5)"/>
</clipPath>
</defs>
</svg>
