<svg width="101" height="101" viewBox="0 0 101 101" fill="none" xmlns="http://www.w3.org/2000/svg">
<g clip-path="url(#clip0_17_1137)">
<path d="M83.8984 0.5H17.1016C7.93277 0.5 0.5 8.11116 0.5 17.5V83.34C0.5 92.7288 7.93277 100.34 17.1016 100.34H83.8984C93.0672 100.34 100.5 92.7288 100.5 83.34V17.5C100.5 8.11116 93.0672 0.5 83.8984 0.5Z" fill="#001E36"/>
<path d="M53.0167 71.0636H26.5859C26.1382 71.0636 25.9147 70.8116 25.9152 70.3076V26.688C25.9034 26.604 25.9109 26.5184 25.9371 26.4379C25.9633 26.3575 26.0074 26.2843 26.066 26.2243C26.1245 26.1643 26.1959 26.1191 26.2745 26.0922C26.3531 26.0654 26.4367 26.0576 26.5187 26.0696H34.7031C34.7669 26.0604 34.8319 26.0665 34.893 26.0874C34.9541 26.1084 35.0096 26.1436 35.0551 26.1902C35.1006 26.2369 35.135 26.2938 35.1554 26.3563C35.1757 26.4189 35.1816 26.4855 35.1726 26.5508V62.4088H54.4253C54.8277 62.4088 54.9843 62.6148 54.8953 63.0268L53.6874 70.4456C53.6846 70.5469 53.6589 70.6461 53.6123 70.7355C53.5658 70.8249 53.4996 70.902 53.4191 70.9608C53.2947 71.0269 53.1569 71.0622 53.0167 71.064M59.6574 36.9232H66.9695C67.3773 36.9272 67.7335 37.2072 67.8414 37.6104C68.0011 37.9113 68.1144 38.2357 68.1773 38.572C68.2705 39.0144 68.3374 39.461 68.3781 39.9116C68.4223 40.3924 68.4447 40.9076 68.4453 41.4572C69.6991 39.9619 71.2113 38.716 72.9062 37.782C74.8101 36.7279 76.9477 36.1954 79.1117 36.2364C79.1937 36.2244 79.2773 36.2322 79.3559 36.259C79.4344 36.2859 79.5058 36.3311 79.5644 36.3911C79.623 36.4511 79.6671 36.5243 79.6932 36.6047C79.7194 36.6852 79.7269 36.7708 79.7152 36.8548V45.1668C79.7152 45.4876 79.4916 45.6479 79.0445 45.6476C76.3422 45.4764 73.6392 45.971 71.1621 47.09C70.3205 47.4633 69.5573 47.9998 68.9148 48.67V70.446C68.9148 70.858 68.7359 71.064 68.3781 71.064H60.2609C60.1698 71.0774 60.0769 71.0689 59.9895 71.0391C59.9022 71.0093 59.8228 70.9591 59.7577 70.8924C59.6926 70.8258 59.6436 70.7445 59.6145 70.6551C59.5854 70.5657 59.5771 70.4705 59.5902 70.3772V46.7464C59.5902 46.1712 59.5865 45.577 59.5792 44.9636L59.5656 44.03C59.563 43.8719 59.56 43.7127 59.5566 43.5524C59.5395 42.7172 59.5163 41.8821 59.4871 41.0472L59.4558 40.2208C59.4261 39.2771 59.3366 38.3363 59.1878 37.4044C59.1721 37.3421 59.1715 37.2769 59.186 37.2143C59.2005 37.1517 59.2297 37.0937 59.2711 37.0453C59.3125 36.997 59.3648 36.9597 59.4235 36.9367C59.4821 36.9138 59.5454 36.9058 59.6078 36.9136L59.6574 36.9232Z" fill="#31A8FF"/>
</g>
<defs>
<clipPath id="clip0_17_1137">
<rect width="100" height="100" fill="white" transform="translate(0.5 0.5)"/>
</clipPath>
</defs>
</svg>
