<svg width="101" height="101" viewBox="0 0 101 101" fill="none" xmlns="http://www.w3.org/2000/svg">
<g clip-path="url(#clip0_17_1133)">
<path d="M18.2086 1.75H82.7914C92.5836 1.75 100.5 9.66641 100.5 19.4586V81.5414C100.5 91.3336 92.5836 99.25 82.7914 99.25H18.2086C8.41641 99.25 0.5 91.3336 0.5 81.5414V19.4586C0.5 9.66641 8.41641 1.75 18.2086 1.75Z" fill="#001E36"/>
<path d="M36.3336 26.5414C35.0836 26.5414 33.8336 26.5414 32.5422 26.5836C31.25 26.625 30.0414 26.625 28.9164 26.6672C27.7914 26.7086 26.75 26.7086 25.75 26.75C24.7914 26.7914 24.125 26.7914 23.4164 26.7914C23.125 26.7914 23 26.9578 23 27.25V70.125C23 70.5 23.1664 70.6672 23.5 70.6672H31.5836C31.875 70.625 32.0836 70.375 32.0414 70.0836V56.7086C32.8328 56.7086 33.4164 56.7086 33.8336 56.75C34.25 56.7914 34.9164 56.7914 35.9164 56.7914C39.3336 56.7914 42.4586 56.4164 45.2914 55.375C48 54.375 50.3336 52.625 52 50.2914C53.6667 47.958 54.5 44.9997 54.5 41.4164C54.5 39.5414 54.1672 37.75 53.5422 36C52.8799 34.2171 51.8425 32.5972 50.5 31.25C48.9155 29.7106 47.0082 28.5433 44.9164 27.8328C42.5828 26.9578 39.75 26.5414 36.3336 26.5414ZM37.2633 34.7484C38.7477 34.7765 40.193 35.0359 41.5414 35.5828C42.75 36.0414 43.75 36.875 44.4586 37.9578C45.1231 39.0784 45.4556 40.3649 45.4172 41.6672C45.4172 43.5 45 44.9172 44.125 45.9586C43.2078 47 42.0414 47.7922 40.7086 48.1672C39.1664 48.6672 37.5414 48.9164 35.9164 48.9164H33.7078C33.2078 48.9164 32.6672 48.875 32.0836 48.8336V34.8336C32.375 34.7914 32.9586 34.75 33.7922 34.7922C34.5836 34.75 35.5414 34.75 36.625 34.75C36.8385 34.7448 37.0513 34.7442 37.2633 34.7484ZM72.2086 36.8758C69.25 36.8758 66.7914 37.3336 64.8336 38.3336C63.0422 39.1672 61.5 40.5 60.4586 42.1664C59.5422 43.7086 59.0414 45.4164 59.0414 47.2086C59.0058 48.6826 59.3351 50.1426 60 51.4586C60.7793 52.8599 61.8613 54.0697 63.1672 55C65.0001 56.2536 66.9891 57.2622 69.0836 58C71.125 58.7914 72.5 59.4164 73.1672 59.9578C73.8336 60.5 74.1672 61.0414 74.1672 61.625C74.1672 62.375 73.7086 63.0836 73.0422 63.375C72.2922 63.75 71.1672 63.9586 69.5836 63.9586C67.9172 63.9586 66.25 63.75 64.6664 63.3336C62.8481 62.9275 61.1048 62.2386 59.5 61.2922C59.375 61.2086 59.25 61.1672 59.125 61.2508C59 61.3336 58.9586 61.5 58.9586 61.625V68.875C58.9172 69.2086 59.125 69.5 59.4172 69.6664C60.7684 70.2976 62.1976 70.7461 63.6672 71C65.5422 71.375 67.4164 71.5414 69.3328 71.5414C72.3328 71.5414 74.8336 71.0836 76.875 70.2086C78.75 69.4586 80.375 68.1672 81.5414 66.5C82.6338 64.861 83.2007 62.928 83.1664 60.9586C83.2075 59.4708 82.8784 57.9962 82.2086 56.6672C81.4164 55.25 80.2914 54.0836 78.9164 53.2086C76.9049 51.9454 74.7512 50.9242 72.5 50.1664C71.4947 49.7503 70.5076 49.2915 69.5414 48.7914C69 48.5 68.5 48.125 68.125 47.6664C67.875 47.3328 67.7086 46.9586 67.7086 46.5836C67.7086 46.2086 67.8336 45.7922 68.0414 45.4586C68.3336 45.0422 68.7914 44.75 69.3328 44.625C70.125 44.4172 71 44.2914 71.8328 44.3328C73.4164 44.3328 74.9578 44.5414 76.5 44.875C77.9172 45.1664 79.25 45.625 80.5 46.2922C80.6664 46.375 80.875 46.375 81.25 46.2922C81.3151 46.2439 81.3679 46.181 81.4042 46.1085C81.4404 46.036 81.4591 45.956 81.4586 45.875V39.0836C81.4586 38.9164 81.4164 38.75 81.375 38.5836C81.2914 38.4172 81.125 38.25 80.9586 38.2086C79.8094 37.7389 78.6052 37.4168 77.375 37.25C75.6641 37.0009 73.9375 36.8763 72.2086 36.8758Z" fill="#31A8FF"/>
</g>
<defs>
<clipPath id="clip0_17_1133">
<rect width="100" height="100" fill="white" transform="translate(0.5 0.5)"/>
</clipPath>
</defs>
</svg>
