<?xml version="1.0" encoding="UTF-8"?>
<!DOCTYPE xmeml>
<xmeml version="4">
	<project>
		<name>prueba</name>
		<children>
			<clip id="masterclip-1" explodedTracks="true">
				<uuid>27cee618-bb34-40fc-8c31-4d05671c0329</uuid>
				<masterclipid>masterclip-1</masterclipid>
				<ismasterclip>TRUE</ismasterclip>
				<duration>2444</duration>
				<rate>
					<timebase>30</timebase>
					<ntsc>TRUE</ntsc>
				</rate>
				<name>Kendall-01-01-CAM_B.MOV</name>
				<media>
					<video>
						<track>
							<clipitem id="clipitem-1">
								<masterclipid>masterclip-1</masterclipid>
								<name>Kendall-01-01-CAM_B.MOV</name>
								<rate>
									<timebase>30</timebase>
									<ntsc>TRUE</ntsc>
								</rate>
								<alphatype>none</alphatype>
								<pixelaspectratio>square</pixelaspectratio>
								<anamorphic>FALSE</anamorphic>
								<file id="file-1">
									<name>Kendall-01-01-CAM_B.MOV</name>
									<pathurl>file://localhost/C%3a/Users/lab1/Downloads/Videos%20Proyecto%20-%20copia/Kendall-01-01-CAM_B.MOV</pathurl>
									<rate>
										<timebase>30</timebase>
										<ntsc>TRUE</ntsc>
									</rate>
									<duration>2444</duration>
									<timecode>
										<rate>
											<timebase>30</timebase>
											<ntsc>TRUE</ntsc>
										</rate>
										<string>00:00:00:00</string>
										<frame>0</frame>
										<displayformat>NDF</displayformat>
									</timecode>
									<media>
										<video>
											<samplecharacteristics>
												<rate>
													<timebase>30</timebase>
													<ntsc>TRUE</ntsc>
												</rate>
												<width>1920</width>
												<height>1080</height>
												<anamorphic>FALSE</anamorphic>
												<pixelaspectratio>square</pixelaspectratio>
												<fielddominance>none</fielddominance>
											</samplecharacteristics>
										</video>
										<audio>
											<samplecharacteristics>
												<depth>16</depth>
												<samplerate>48000</samplerate>
											</samplecharacteristics>
											<channelcount>2</channelcount>
										</audio>
									</media>
								</file>
								<link>
									<linkclipref>clipitem-1</linkclipref>
									<mediatype>video</mediatype>
									<trackindex>1</trackindex>
									<clipindex>1</clipindex>
								</link>
								<link>
									<linkclipref>clipitem-2</linkclipref>
									<mediatype>audio</mediatype>
									<trackindex>1</trackindex>
									<clipindex>1</clipindex>
									<groupindex>1</groupindex>
								</link>
								<link>
									<linkclipref>clipitem-3</linkclipref>
									<mediatype>audio</mediatype>
									<trackindex>2</trackindex>
									<clipindex>1</clipindex>
									<groupindex>1</groupindex>
								</link>
							</clipitem>
						</track>
					</video>
					<audio>
						<track>
							<clipitem id="clipitem-2">
								<masterclipid>masterclip-1</masterclipid>
								<name>Kendall-01-01-CAM_B.MOV</name>
								<rate>
									<timebase>30</timebase>
									<ntsc>TRUE</ntsc>
								</rate>
								<file id="file-1"/>
								<sourcetrack>
									<mediatype>audio</mediatype>
									<trackindex>1</trackindex>
								</sourcetrack>
								<link>
									<linkclipref>clipitem-1</linkclipref>
									<mediatype>video</mediatype>
									<trackindex>1</trackindex>
									<clipindex>1</clipindex>
								</link>
								<link>
									<linkclipref>clipitem-2</linkclipref>
									<mediatype>audio</mediatype>
									<trackindex>1</trackindex>
									<clipindex>1</clipindex>
									<groupindex>1</groupindex>
								</link>
								<link>
									<linkclipref>clipitem-3</linkclipref>
									<mediatype>audio</mediatype>
									<trackindex>2</trackindex>
									<clipindex>1</clipindex>
									<groupindex>1</groupindex>
								</link>
							</clipitem>
						</track>
						<track>
							<clipitem id="clipitem-3">
								<masterclipid>masterclip-1</masterclipid>
								<name>Kendall-01-01-CAM_B.MOV</name>
								<rate>
									<timebase>30</timebase>
									<ntsc>TRUE</ntsc>
								</rate>
								<file id="file-1"/>
								<sourcetrack>
									<mediatype>audio</mediatype>
									<trackindex>2</trackindex>
								</sourcetrack>
								<link>
									<linkclipref>clipitem-1</linkclipref>
									<mediatype>video</mediatype>
									<trackindex>1</trackindex>
									<clipindex>1</clipindex>
								</link>
								<link>
									<linkclipref>clipitem-2</linkclipref>
									<mediatype>audio</mediatype>
									<trackindex>1</trackindex>
									<clipindex>1</clipindex>
									<groupindex>1</groupindex>
								</link>
								<link>
									<linkclipref>clipitem-3</linkclipref>
									<mediatype>audio</mediatype>
									<trackindex>2</trackindex>
									<clipindex>1</clipindex>
									<groupindex>1</groupindex>
								</link>
							</clipitem>
						</track>
					</audio>
				</media>
				<logginginfo>
					<description></description>
					<scene></scene>
					<shottake></shottake>
					<lognote></lognote>
					<good></good>
					<originalvideofilename></originalvideofilename>
					<originalaudiofilename></originalaudiofilename>
				</logginginfo>
				<colorinfo>
					<lut></lut>
					<lut1></lut1>
					<asc_sop></asc_sop>
					<asc_sat></asc_sat>
					<lut2></lut2>
				</colorinfo>
				<labels>
					<label2>Iris</label2>
				</labels>
			</clip>
			<clip id="masterclip-2" explodedTracks="true">
				<uuid>f23ea1ca-1d37-42ad-b7fb-88d371dc71ca</uuid>
				<masterclipid>masterclip-2</masterclipid>
				<ismasterclip>TRUE</ismasterclip>
				<duration>2679</duration>
				<rate>
					<timebase>30</timebase>
					<ntsc>TRUE</ntsc>
				</rate>
				<name>Kendall-02-01-CAM_B.MOV</name>
				<media>
					<video>
						<track>
							<clipitem id="clipitem-4">
								<masterclipid>masterclip-2</masterclipid>
								<name>Kendall-02-01-CAM_B.MOV</name>
								<rate>
									<timebase>30</timebase>
									<ntsc>TRUE</ntsc>
								</rate>
								<alphatype>none</alphatype>
								<pixelaspectratio>square</pixelaspectratio>
								<anamorphic>FALSE</anamorphic>
								<file id="file-2">
									<name>Kendall-02-01-CAM_B.MOV</name>
									<pathurl>file://localhost/C%3a/Users/lab1/Downloads/Videos%20Proyecto%20-%20copia/Kendall-02-01-CAM_B.MOV</pathurl>
									<rate>
										<timebase>30</timebase>
										<ntsc>TRUE</ntsc>
									</rate>
									<duration>2679</duration>
									<timecode>
										<rate>
											<timebase>30</timebase>
											<ntsc>TRUE</ntsc>
										</rate>
										<string>00:00:00:00</string>
										<frame>0</frame>
										<displayformat>NDF</displayformat>
									</timecode>
									<media>
										<video>
											<samplecharacteristics>
												<rate>
													<timebase>30</timebase>
													<ntsc>TRUE</ntsc>
												</rate>
												<width>1920</width>
												<height>1080</height>
												<anamorphic>FALSE</anamorphic>
												<pixelaspectratio>square</pixelaspectratio>
												<fielddominance>none</fielddominance>
											</samplecharacteristics>
										</video>
										<audio>
											<samplecharacteristics>
												<depth>16</depth>
												<samplerate>48000</samplerate>
											</samplecharacteristics>
											<channelcount>2</channelcount>
										</audio>
									</media>
								</file>
								<link>
									<linkclipref>clipitem-4</linkclipref>
									<mediatype>video</mediatype>
									<trackindex>1</trackindex>
									<clipindex>1</clipindex>
								</link>
								<link>
									<linkclipref>clipitem-5</linkclipref>
									<mediatype>audio</mediatype>
									<trackindex>1</trackindex>
									<clipindex>1</clipindex>
									<groupindex>1</groupindex>
								</link>
								<link>
									<linkclipref>clipitem-6</linkclipref>
									<mediatype>audio</mediatype>
									<trackindex>2</trackindex>
									<clipindex>1</clipindex>
									<groupindex>1</groupindex>
								</link>
							</clipitem>
						</track>
					</video>
					<audio>
						<track>
							<clipitem id="clipitem-5">
								<masterclipid>masterclip-2</masterclipid>
								<name>Kendall-02-01-CAM_B.MOV</name>
								<rate>
									<timebase>30</timebase>
									<ntsc>TRUE</ntsc>
								</rate>
								<file id="file-2"/>
								<sourcetrack>
									<mediatype>audio</mediatype>
									<trackindex>1</trackindex>
								</sourcetrack>
								<link>
									<linkclipref>clipitem-4</linkclipref>
									<mediatype>video</mediatype>
									<trackindex>1</trackindex>
									<clipindex>1</clipindex>
								</link>
								<link>
									<linkclipref>clipitem-5</linkclipref>
									<mediatype>audio</mediatype>
									<trackindex>1</trackindex>
									<clipindex>1</clipindex>
									<groupindex>1</groupindex>
								</link>
								<link>
									<linkclipref>clipitem-6</linkclipref>
									<mediatype>audio</mediatype>
									<trackindex>2</trackindex>
									<clipindex>1</clipindex>
									<groupindex>1</groupindex>
								</link>
							</clipitem>
						</track>
						<track>
							<clipitem id="clipitem-6">
								<masterclipid>masterclip-2</masterclipid>
								<name>Kendall-02-01-CAM_B.MOV</name>
								<rate>
									<timebase>30</timebase>
									<ntsc>TRUE</ntsc>
								</rate>
								<file id="file-2"/>
								<sourcetrack>
									<mediatype>audio</mediatype>
									<trackindex>2</trackindex>
								</sourcetrack>
								<link>
									<linkclipref>clipitem-4</linkclipref>
									<mediatype>video</mediatype>
									<trackindex>1</trackindex>
									<clipindex>1</clipindex>
								</link>
								<link>
									<linkclipref>clipitem-5</linkclipref>
									<mediatype>audio</mediatype>
									<trackindex>1</trackindex>
									<clipindex>1</clipindex>
									<groupindex>1</groupindex>
								</link>
								<link>
									<linkclipref>clipitem-6</linkclipref>
									<mediatype>audio</mediatype>
									<trackindex>2</trackindex>
									<clipindex>1</clipindex>
									<groupindex>1</groupindex>
								</link>
							</clipitem>
						</track>
					</audio>
				</media>
				<logginginfo>
					<description></description>
					<scene></scene>
					<shottake></shottake>
					<lognote></lognote>
					<good></good>
					<originalvideofilename></originalvideofilename>
					<originalaudiofilename></originalaudiofilename>
				</logginginfo>
				<colorinfo>
					<lut></lut>
					<lut1></lut1>
					<asc_sop></asc_sop>
					<asc_sat></asc_sat>
					<lut2></lut2>
				</colorinfo>
				<labels>
					<label2>Iris</label2>
				</labels>
			</clip>
			<clip id="masterclip-3" explodedTracks="true">
				<uuid>823ff5f0-6a7c-4397-bbce-1cc5de9735ce</uuid>
				<masterclipid>masterclip-3</masterclipid>
				<ismasterclip>TRUE</ismasterclip>
				<duration>3100</duration>
				<rate>
					<timebase>30</timebase>
					<ntsc>TRUE</ntsc>
				</rate>
				<name>Kendall-03-01-CAM_B.MOV</name>
				<media>
					<video>
						<track>
							<clipitem id="clipitem-7">
								<masterclipid>masterclip-3</masterclipid>
								<name>Kendall-03-01-CAM_B.MOV</name>
								<rate>
									<timebase>30</timebase>
									<ntsc>TRUE</ntsc>
								</rate>
								<alphatype>none</alphatype>
								<pixelaspectratio>square</pixelaspectratio>
								<anamorphic>FALSE</anamorphic>
								<file id="file-3">
									<name>Kendall-03-01-CAM_B.MOV</name>
									<pathurl>file://localhost/C%3a/Users/lab1/Downloads/Videos%20Proyecto%20-%20copia/Kendall-03-01-CAM_B.MOV</pathurl>
									<rate>
										<timebase>30</timebase>
										<ntsc>TRUE</ntsc>
									</rate>
									<duration>3100</duration>
									<timecode>
										<rate>
											<timebase>30</timebase>
											<ntsc>TRUE</ntsc>
										</rate>
										<string>00:00:00:00</string>
										<frame>0</frame>
										<displayformat>NDF</displayformat>
									</timecode>
									<media>
										<video>
											<samplecharacteristics>
												<rate>
													<timebase>30</timebase>
													<ntsc>TRUE</ntsc>
												</rate>
												<width>1920</width>
												<height>1080</height>
												<anamorphic>FALSE</anamorphic>
												<pixelaspectratio>square</pixelaspectratio>
												<fielddominance>none</fielddominance>
											</samplecharacteristics>
										</video>
										<audio>
											<samplecharacteristics>
												<depth>16</depth>
												<samplerate>48000</samplerate>
											</samplecharacteristics>
											<channelcount>2</channelcount>
										</audio>
									</media>
								</file>
								<link>
									<linkclipref>clipitem-7</linkclipref>
									<mediatype>video</mediatype>
									<trackindex>1</trackindex>
									<clipindex>1</clipindex>
								</link>
								<link>
									<linkclipref>clipitem-8</linkclipref>
									<mediatype>audio</mediatype>
									<trackindex>1</trackindex>
									<clipindex>1</clipindex>
									<groupindex>1</groupindex>
								</link>
								<link>
									<linkclipref>clipitem-9</linkclipref>
									<mediatype>audio</mediatype>
									<trackindex>2</trackindex>
									<clipindex>1</clipindex>
									<groupindex>1</groupindex>
								</link>
							</clipitem>
						</track>
					</video>
					<audio>
						<track>
							<clipitem id="clipitem-8">
								<masterclipid>masterclip-3</masterclipid>
								<name>Kendall-03-01-CAM_B.MOV</name>
								<rate>
									<timebase>30</timebase>
									<ntsc>TRUE</ntsc>
								</rate>
								<file id="file-3"/>
								<sourcetrack>
									<mediatype>audio</mediatype>
									<trackindex>1</trackindex>
								</sourcetrack>
								<link>
									<linkclipref>clipitem-7</linkclipref>
									<mediatype>video</mediatype>
									<trackindex>1</trackindex>
									<clipindex>1</clipindex>
								</link>
								<link>
									<linkclipref>clipitem-8</linkclipref>
									<mediatype>audio</mediatype>
									<trackindex>1</trackindex>
									<clipindex>1</clipindex>
									<groupindex>1</groupindex>
								</link>
								<link>
									<linkclipref>clipitem-9</linkclipref>
									<mediatype>audio</mediatype>
									<trackindex>2</trackindex>
									<clipindex>1</clipindex>
									<groupindex>1</groupindex>
								</link>
							</clipitem>
						</track>
						<track>
							<clipitem id="clipitem-9">
								<masterclipid>masterclip-3</masterclipid>
								<name>Kendall-03-01-CAM_B.MOV</name>
								<rate>
									<timebase>30</timebase>
									<ntsc>TRUE</ntsc>
								</rate>
								<file id="file-3"/>
								<sourcetrack>
									<mediatype>audio</mediatype>
									<trackindex>2</trackindex>
								</sourcetrack>
								<link>
									<linkclipref>clipitem-7</linkclipref>
									<mediatype>video</mediatype>
									<trackindex>1</trackindex>
									<clipindex>1</clipindex>
								</link>
								<link>
									<linkclipref>clipitem-8</linkclipref>
									<mediatype>audio</mediatype>
									<trackindex>1</trackindex>
									<clipindex>1</clipindex>
									<groupindex>1</groupindex>
								</link>
								<link>
									<linkclipref>clipitem-9</linkclipref>
									<mediatype>audio</mediatype>
									<trackindex>2</trackindex>
									<clipindex>1</clipindex>
									<groupindex>1</groupindex>
								</link>
							</clipitem>
						</track>
					</audio>
				</media>
				<logginginfo>
					<description></description>
					<scene></scene>
					<shottake></shottake>
					<lognote></lognote>
					<good></good>
					<originalvideofilename></originalvideofilename>
					<originalaudiofilename></originalaudiofilename>
				</logginginfo>
				<colorinfo>
					<lut></lut>
					<lut1></lut1>
					<asc_sop></asc_sop>
					<asc_sat></asc_sat>
					<lut2></lut2>
				</colorinfo>
				<labels>
					<label2>Iris</label2>
				</labels>
			</clip>
			<clip id="masterclip-4" explodedTracks="true">
				<uuid>274f03b4-4809-49fc-866c-26efad99b889</uuid>
				<masterclipid>masterclip-4</masterclipid>
				<ismasterclip>TRUE</ismasterclip>
				<duration>1657</duration>
				<rate>
					<timebase>30</timebase>
					<ntsc>TRUE</ntsc>
				</rate>
				<name>Kendall-04-01-CAM_B.MOV</name>
				<media>
					<video>
						<track>
							<clipitem id="clipitem-10">
								<masterclipid>masterclip-4</masterclipid>
								<name>Kendall-04-01-CAM_B.MOV</name>
								<rate>
									<timebase>30</timebase>
									<ntsc>TRUE</ntsc>
								</rate>
								<alphatype>none</alphatype>
								<pixelaspectratio>square</pixelaspectratio>
								<anamorphic>FALSE</anamorphic>
								<file id="file-4">
									<name>Kendall-04-01-CAM_B.MOV</name>
									<pathurl>file://localhost/C%3a/Users/lab1/Downloads/Videos%20Proyecto%20-%20copia/Kendall-04-01-CAM_B.MOV</pathurl>
									<rate>
										<timebase>30</timebase>
										<ntsc>TRUE</ntsc>
									</rate>
									<duration>1657</duration>
									<timecode>
										<rate>
											<timebase>30</timebase>
											<ntsc>TRUE</ntsc>
										</rate>
										<string>00:00:00:00</string>
										<frame>0</frame>
										<displayformat>NDF</displayformat>
									</timecode>
									<media>
										<video>
											<samplecharacteristics>
												<rate>
													<timebase>30</timebase>
													<ntsc>TRUE</ntsc>
												</rate>
												<width>1920</width>
												<height>1080</height>
												<anamorphic>FALSE</anamorphic>
												<pixelaspectratio>square</pixelaspectratio>
												<fielddominance>none</fielddominance>
											</samplecharacteristics>
										</video>
										<audio>
											<samplecharacteristics>
												<depth>16</depth>
												<samplerate>48000</samplerate>
											</samplecharacteristics>
											<channelcount>2</channelcount>
										</audio>
									</media>
								</file>
								<link>
									<linkclipref>clipitem-10</linkclipref>
									<mediatype>video</mediatype>
									<trackindex>1</trackindex>
									<clipindex>1</clipindex>
								</link>
								<link>
									<linkclipref>clipitem-11</linkclipref>
									<mediatype>audio</mediatype>
									<trackindex>1</trackindex>
									<clipindex>1</clipindex>
									<groupindex>1</groupindex>
								</link>
								<link>
									<linkclipref>clipitem-12</linkclipref>
									<mediatype>audio</mediatype>
									<trackindex>2</trackindex>
									<clipindex>1</clipindex>
									<groupindex>1</groupindex>
								</link>
							</clipitem>
						</track>
					</video>
					<audio>
						<track>
							<clipitem id="clipitem-11">
								<masterclipid>masterclip-4</masterclipid>
								<name>Kendall-04-01-CAM_B.MOV</name>
								<rate>
									<timebase>30</timebase>
									<ntsc>TRUE</ntsc>
								</rate>
								<file id="file-4"/>
								<sourcetrack>
									<mediatype>audio</mediatype>
									<trackindex>1</trackindex>
								</sourcetrack>
								<link>
									<linkclipref>clipitem-10</linkclipref>
									<mediatype>video</mediatype>
									<trackindex>1</trackindex>
									<clipindex>1</clipindex>
								</link>
								<link>
									<linkclipref>clipitem-11</linkclipref>
									<mediatype>audio</mediatype>
									<trackindex>1</trackindex>
									<clipindex>1</clipindex>
									<groupindex>1</groupindex>
								</link>
								<link>
									<linkclipref>clipitem-12</linkclipref>
									<mediatype>audio</mediatype>
									<trackindex>2</trackindex>
									<clipindex>1</clipindex>
									<groupindex>1</groupindex>
								</link>
							</clipitem>
						</track>
						<track>
							<clipitem id="clipitem-12">
								<masterclipid>masterclip-4</masterclipid>
								<name>Kendall-04-01-CAM_B.MOV</name>
								<rate>
									<timebase>30</timebase>
									<ntsc>TRUE</ntsc>
								</rate>
								<file id="file-4"/>
								<sourcetrack>
									<mediatype>audio</mediatype>
									<trackindex>2</trackindex>
								</sourcetrack>
								<link>
									<linkclipref>clipitem-10</linkclipref>
									<mediatype>video</mediatype>
									<trackindex>1</trackindex>
									<clipindex>1</clipindex>
								</link>
								<link>
									<linkclipref>clipitem-11</linkclipref>
									<mediatype>audio</mediatype>
									<trackindex>1</trackindex>
									<clipindex>1</clipindex>
									<groupindex>1</groupindex>
								</link>
								<link>
									<linkclipref>clipitem-12</linkclipref>
									<mediatype>audio</mediatype>
									<trackindex>2</trackindex>
									<clipindex>1</clipindex>
									<groupindex>1</groupindex>
								</link>
							</clipitem>
						</track>
					</audio>
				</media>
				<logginginfo>
					<description></description>
					<scene></scene>
					<shottake></shottake>
					<lognote></lognote>
					<good></good>
					<originalvideofilename></originalvideofilename>
					<originalaudiofilename></originalaudiofilename>
				</logginginfo>
				<colorinfo>
					<lut></lut>
					<lut1></lut1>
					<asc_sop></asc_sop>
					<asc_sat></asc_sat>
					<lut2></lut2>
				</colorinfo>
				<labels>
					<label2>Iris</label2>
				</labels>
			</clip>
			<sequence id="sequence-1" TL.SQAudioVisibleBase="0" TL.SQVideoVisibleBase="0" TL.SQVisibleBaseTime="0" TL.SQAVDividerPosition="0.5" TL.SQHideShyTracks="0" TL.SQHeaderWidth="204" Monitor.ProgramZoomOut="8958780230400" Monitor.ProgramZoomIn="0" TL.SQTimePerPixel="0.0236115455090736" MZ.EditLine="0" MZ.Sequence.PreviewFrameSizeHeight="1080" MZ.Sequence.PreviewFrameSizeWidth="1920" MZ.Sequence.AudioTimeDisplayFormat="200" MZ.Sequence.PreviewRenderingClassID="1061109567" MZ.Sequence.PreviewRenderingPresetCodec="1634755443" MZ.Sequence.PreviewRenderingPresetPath="EncoderPresets\SequencePreview\9678af98-a7b7-4bdb-b477-7ac9c8df4a4e\QuickTime.epr" MZ.Sequence.PreviewUseMaxRenderQuality="false" MZ.Sequence.PreviewUseMaxBitDepth="false" MZ.Sequence.EditingModeGUID="9678af98-a7b7-4bdb-b477-7ac9c8df4a4e" MZ.Sequence.VideoTimeDisplayFormat="103" MZ.WorkOutPoint="15239249625600" MZ.WorkInPoint="0" explodedTracks="true">
				<uuid>447a2394-b2e8-425d-9ec7-efc609831079</uuid>
				<duration>1057</duration>
				<rate>
					<timebase>30</timebase>
					<ntsc>TRUE</ntsc>
				</rate>
				<name>Secuencia 01</name>
				<media>
					<video>
						<format>
							<samplecharacteristics>
								<rate>
									<timebase>30</timebase>
									<ntsc>TRUE</ntsc>
								</rate>
								<codec>
									<name>Apple ProRes 422</name>
									<appspecificdata>
										<appname>Final Cut Pro</appname>
										<appmanufacturer>Apple Inc.</appmanufacturer>
										<appversion>7.0</appversion>
										<data>
											<qtcodec>
												<codecname>Apple ProRes 422</codecname>
												<codectypename>Apple ProRes 422</codectypename>
												<codectypecode>apcn</codectypecode>
												<codecvendorcode>appl</codecvendorcode>
												<spatialquality>1024</spatialquality>
												<temporalquality>0</temporalquality>
												<keyframerate>0</keyframerate>
												<datarate>0</datarate>
											</qtcodec>
										</data>
									</appspecificdata>
								</codec>
								<width>1920</width>
								<height>1080</height>
								<anamorphic>FALSE</anamorphic>
								<pixelaspectratio>square</pixelaspectratio>
								<fielddominance>none</fielddominance>
								<colordepth>24</colordepth>
							</samplecharacteristics>
						</format>
						<track TL.SQTrackShy="0" TL.SQTrackExpandedHeight="41" TL.SQTrackExpanded="0" MZ.TrackTargeted="1">
							<clipitem id="clipitem-13">
								<masterclipid>masterclip-2</masterclipid>
								<name>Kendall-02-01-CAM_B.MOV</name>
								<enabled>TRUE</enabled>
								<duration>2679</duration>
								<rate>
									<timebase>30</timebase>
									<ntsc>TRUE</ntsc>
								</rate>
								<start>73</start>
								<end>218</end>
								<in>1482</in>
								<out>1627</out>
								<pproTicksIn>12560938790400</pproTicksIn>
								<pproTicksOut>13789910534400</pproTicksOut>
								<alphatype>none</alphatype>
								<file id="file-2"/>
								<logginginfo>
									<description></description>
									<scene></scene>
									<shottake></shottake>
									<lognote></lognote>
									<good></good>
									<originalvideofilename></originalvideofilename>
									<originalaudiofilename></originalaudiofilename>
								</logginginfo>
								<colorinfo>
									<lut></lut>
									<lut1></lut1>
									<asc_sop></asc_sop>
									<asc_sat></asc_sat>
									<lut2></lut2>
								</colorinfo>
								<labels>
									<label2>Iris</label2>
								</labels>
							</clipitem>
							<clipitem id="clipitem-14">
								<masterclipid>masterclip-2</masterclipid>
								<name>Kendall-02-01-CAM_B.MOV</name>
								<enabled>TRUE</enabled>
								<duration>2679</duration>
								<rate>
									<timebase>30</timebase>
									<ntsc>TRUE</ntsc>
								</rate>
								<start>218</start>
								<end>353</end>
								<in>1627</in>
								<out>1762</out>
								<pproTicksIn>13789910534400</pproTicksIn>
								<pproTicksOut>14934125606400</pproTicksOut>
								<alphatype>none</alphatype>
								<file id="file-2"/>
								<logginginfo>
									<description></description>
									<scene></scene>
									<shottake></shottake>
									<lognote></lognote>
									<good></good>
									<originalvideofilename></originalvideofilename>
									<originalaudiofilename></originalaudiofilename>
								</logginginfo>
								<colorinfo>
									<lut></lut>
									<lut1></lut1>
									<asc_sop></asc_sop>
									<asc_sat></asc_sat>
									<lut2></lut2>
								</colorinfo>
								<labels>
									<label2>Iris</label2>
								</labels>
							</clipitem>
							<clipitem id="clipitem-15">
								<masterclipid>masterclip-3</masterclipid>
								<name>Kendall-03-01-CAM_B.MOV</name>
								<enabled>TRUE</enabled>
								<duration>3100</duration>
								<rate>
									<timebase>30</timebase>
									<ntsc>TRUE</ntsc>
								</rate>
								<start>353</start>
								<end>569</end>
								<in>549</in>
								<out>765</out>
								<pproTicksIn>4653141292800</pproTicksIn>
								<pproTicksOut>6483885408000</pproTicksOut>
								<alphatype>none</alphatype>
								<file id="file-3"/>
								<logginginfo>
									<description></description>
									<scene></scene>
									<shottake></shottake>
									<lognote></lognote>
									<good></good>
									<originalvideofilename></originalvideofilename>
									<originalaudiofilename></originalaudiofilename>
								</logginginfo>
								<colorinfo>
									<lut></lut>
									<lut1></lut1>
									<asc_sop></asc_sop>
									<asc_sat></asc_sat>
									<lut2></lut2>
								</colorinfo>
								<labels>
									<label2>Iris</label2>
								</labels>
							</clipitem>
							<clipitem id="clipitem-16">
								<masterclipid>masterclip-1</masterclipid>
								<name>Kendall-01-01-CAM_B.MOV</name>
								<enabled>TRUE</enabled>
								<duration>2444</duration>
								<rate>
									<timebase>30</timebase>
									<ntsc>TRUE</ntsc>
								</rate>
								<start>569</start>
								<end>757</end>
								<in>1466</in>
								<out>1654</out>
								<pproTicksIn>12425328115200</pproTicksIn>
								<pproTicksOut>14018753548800</pproTicksOut>
								<alphatype>none</alphatype>
								<file id="file-1"/>
								<logginginfo>
									<description></description>
									<scene></scene>
									<shottake></shottake>
									<lognote></lognote>
									<good></good>
									<originalvideofilename></originalvideofilename>
									<originalaudiofilename></originalaudiofilename>
								</logginginfo>
								<colorinfo>
									<lut></lut>
									<lut1></lut1>
									<asc_sop></asc_sop>
									<asc_sat></asc_sat>
									<lut2></lut2>
								</colorinfo>
								<labels>
									<label2>Iris</label2>
								</labels>
							</clipitem>
							<clipitem id="clipitem-17">
								<masterclipid>masterclip-4</masterclipid>
								<name>Kendall-04-01-CAM_B.MOV</name>
								<enabled>TRUE</enabled>
								<duration>1657</duration>
								<rate>
									<timebase>30</timebase>
									<ntsc>TRUE</ntsc>
								</rate>
								<start>757</start>
								<end>1057</end>
								<in>618</in>
								<out>918</out>
								<pproTicksIn>5237962329600</pproTicksIn>
								<pproTicksOut>7780662489600</pproTicksOut>
								<alphatype>none</alphatype>
								<file id="file-4"/>
								<logginginfo>
									<description></description>
									<scene></scene>
									<shottake></shottake>
									<lognote></lognote>
									<good></good>
									<originalvideofilename></originalvideofilename>
									<originalaudiofilename></originalaudiofilename>
								</logginginfo>
								<colorinfo>
									<lut></lut>
									<lut1></lut1>
									<asc_sop></asc_sop>
									<asc_sat></asc_sat>
									<lut2></lut2>
								</colorinfo>
								<labels>
									<label2>Iris</label2>
								</labels>
							</clipitem>
							<enabled>TRUE</enabled>
							<locked>FALSE</locked>
						</track>
						<track TL.SQTrackShy="0" TL.SQTrackExpandedHeight="41" TL.SQTrackExpanded="0" MZ.TrackTargeted="0">
							<clipitem id="clipitem-18">
								<masterclipid>masterclip-5</masterclipid>
								<name>Gráfico</name>
								<enabled>TRUE</enabled>
								<duration>1294705</duration>
								<rate>
									<timebase>30</timebase>
									<ntsc>TRUE</ntsc>
								</rate>
								<start>0</start>
								<end>111</end>
								<in>107892</in>
								<out>108002</out>
								<pproTicksIn>914456685542400</pproTicksIn>
								<pproTicksOut>915389008934400</pproTicksOut>
								<alphatype>straight</alphatype>
								<pixelaspectratio>square</pixelaspectratio>
								<anamorphic>FALSE</anamorphic>
								<file id="file-5">
									<name>Gráfico</name>
									<mediaSource>GraphicAndType</mediaSource>
									<rate>
										<timebase>30</timebase>
										<ntsc>TRUE</ntsc>
									</rate>
									<timecode>
										<rate>
											<timebase>30</timebase>
											<ntsc>TRUE</ntsc>
										</rate>
										<string>00:00:00:00</string>
										<frame>0</frame>
										<displayformat>NDF</displayformat>
									</timecode>
									<media>
										<video>
											<samplecharacteristics>
												<rate>
													<timebase>30</timebase>
													<ntsc>TRUE</ntsc>
												</rate>
												<width>1920</width>
												<height>1080</height>
												<anamorphic>FALSE</anamorphic>
												<pixelaspectratio>square</pixelaspectratio>
												<fielddominance>none</fielddominance>
											</samplecharacteristics>
										</video>
									</media>
								</file>
								<filter>
									<effect>
										<name>Basic Motion</name>
										<effectid>basic</effectid>
										<effectcategory>motion</effectcategory>
										<effecttype>motion</effecttype>
										<mediatype>video</mediatype>
										<pproBypass>false</pproBypass>
										<parameter authoringApp="PremierePro">
											<parameterid>scale</parameterid>
											<name>Scale</name>
											<valuemin>0</valuemin>
											<valuemax>1000</valuemax>
											<value>100</value>
										</parameter>
										<parameter authoringApp="PremierePro">
											<parameterid>rotation</parameterid>
											<name>Rotation</name>
											<valuemin>-8640</valuemin>
											<valuemax>8640</valuemax>
											<value>0</value>
										</parameter>
										<parameter authoringApp="PremierePro">
											<parameterid>center</parameterid>
											<name>Center</name>
											<value>
												<horiz>0</horiz>
												<vert>0</vert>
											</value>
										</parameter>
										<parameter authoringApp="PremierePro">
											<parameterid>centerOffset</parameterid>
											<name>Anchor Point</name>
											<value>
												<horiz>0</horiz>
												<vert>0</vert>
											</value>
										</parameter>
										<parameter authoringApp="PremierePro">
											<parameterid>antiflicker</parameterid>
											<name>Anti-flicker Filter</name>
											<valuemin>0.0</valuemin>
											<valuemax>1.0</valuemax>
											<value>1</value>
										</parameter>
										<parameter authoringApp="PremierePro">
											<parameterid>leftcrop</parameterid>
											<name>Left</name>
											<valuemin>0.0</valuemin>
											<valuemax>100.0</valuemax>
											<value>0</value>
										</parameter>
										<parameter authoringApp="PremierePro">
											<parameterid>topcrop</parameterid>
											<name>Top</name>
											<valuemin>0.0</valuemin>
											<valuemax>100.0</valuemax>
											<value>0</value>
										</parameter>
										<parameter authoringApp="PremierePro">
											<parameterid>rightcrop</parameterid>
											<name>Right</name>
											<valuemin>0.0</valuemin>
											<valuemax>100.0</valuemax>
											<value>0</value>
										</parameter>
										<parameter authoringApp="PremierePro">
											<parameterid>bottomcrop</parameterid>
											<name>Bottom</name>
											<valuemin>0.0</valuemin>
											<valuemax>100.0</valuemax>
											<value>0</value>
										</parameter>
									</effect>
								</filter>
								<filter>
									<effect>
										<name>Opacity</name>
										<effectid>opacity</effectid>
										<effectcategory>motion</effectcategory>
										<effecttype>motion</effecttype>
										<mediatype>video</mediatype>
										<pproBypass>false</pproBypass>
										<parameter authoringApp="PremierePro">
											<parameterid>opacity</parameterid>
											<name>opacity</name>
											<valuemin>0</valuemin>
											<valuemax>100</valuemax>
											<value>100</value>
											<keyframe>
												<when>107984</when>
												<value>100</value>
											</keyframe>
											<keyframe>
												<when>108003</when>
												<value>0</value>
											</keyframe>
										</parameter>
									</effect>
								</filter>
								<filter>
									<effect>
										<name>Vector Motion</name>
										<effectid>GraphicGroup</effectid>
										<effectcategory>graphic</effectcategory>
										<effecttype>filter</effecttype>
										<mediatype>video</mediatype>
										<pproBypass>false</pproBypass>
										<parameter authoringApp="PremierePro">
											<parameterid>1</parameterid>
											<name>Posición</name>
											<IsTimeVarying>false</IsTimeVarying>
											<value>-91445760000000000,0.5:0.50462962962962965,0,0,0,0,0,0,5,4,0,0,0,0</value>
										</parameter>
										<parameter authoringApp="PremierePro">
											<parameterid>2</parameterid>
											<name>Escala</name>
											<IsTimeVarying>false</IsTimeVarying>
											<ParameterControlType>2</ParameterControlType>
											<LowerBound>0</LowerBound>
											<UpperBound>10000</UpperBound>
											<UpperUIBound>200</UpperUIBound>
											<value>-91445760000000000,100.,0,0,0,0,0,0</value>
										</parameter>
										<parameter authoringApp="PremierePro">
											<parameterid>3</parameterid>
											<name>Anchura de escala</name>
											<IsTimeVarying>false</IsTimeVarying>
											<ParameterControlType>2</ParameterControlType>
											<LowerBound>0</LowerBound>
											<UpperBound>10000</UpperBound>
											<UpperUIBound>200</UpperUIBound>
											<value>-91445760000000000,100.,0,0,0,0,0,0</value>
										</parameter>
										<parameter authoringApp="PremierePro">
											<parameterid>4</parameterid>
											<name> </name>
											<IsTimeVarying>false</IsTimeVarying>
											<ParameterControlType>4</ParameterControlType>
											<LowerBound>false</LowerBound>
											<UpperBound>true</UpperBound>
											<value>-91445760000000000,true,0,0,0,0,0,0</value>
										</parameter>
										<parameter authoringApp="PremierePro">
											<parameterid>5</parameterid>
											<name>Rotación</name>
											<IsTimeVarying>false</IsTimeVarying>
											<ParameterControlType>3</ParameterControlType>
											<LowerBound>-32768</LowerBound>
											<UpperBound>32767</UpperBound>
											<value>-91445760000000000,0.,0,0,0,0,0,0</value>
										</parameter>
										<parameter authoringApp="PremierePro">
											<parameterid>6</parameterid>
											<name>Punto de anclaje</name>
											<IsTimeVarying>false</IsTimeVarying>
											<value>-91445760000000000,0.5:0.5,0,0,0,0,0,0,5,4,0,0,0,0</value>
										</parameter>
									</effect>
								</filter>
								<filter>
									<effect>
										<name></name>
										<effectid>GraphicAndType</effectid>
										<effectcategory>graphic</effectcategory>
										<effecttype>filter</effecttype>
										<mediatype>video</mediatype>
										<pproBypass>false</pproBypass>
										<parameter authoringApp="PremierePro">
											<parameterid>1</parameterid>
											<name>Texto de origen</name>
											<hash>02804120-9d58-81d5-79f0-54b400000178</hash>
											<value>YAEAAAAAAABEMyIRDAAAAAAABgAKAAQABgAAAGQAAAAAAF4AMAAAAAwAAAAAAAAAAAAAAAAAEAAAACwAKwAkACAAHAAAABgAAAAAAAAAAAAAAAAAAAAAAAAAFgAAAAAAAAAAAAAAAAAAAAAAAAAAAAAAAAAAAAgAAAAAABcABwBeAAAAAAAAASgAAABIAAAAbAAAAAAAAQB1Oi1CXS6XQLLeK0OT2q5CAAAAASAAAABM////UP///wQABgAEAAAAAAAKAAgABQAGAAcACgAAAAAAAAABAAAABAAAABIAAABSb2JvdG9TbGFiLVJlZ3VsYXIAAAgADAAEAAgACAAAAAgAAABAAAAAAAAAAAAANgAUAAAAEAAAAAAAAAAAAAAAAAAAAAAAAAAAAAAAAAAAAAAAAAAAAAAAAAAAAAwAAAAIAAQANgAAAAIAAAAMAAAADAAAAAAASEL0////+P////z///8EAAQABAAAAA==</value>
										</parameter>
										<parameter authoringApp="PremierePro">
											<parameterid>2</parameterid>
											<name>Transformar</name>
											<IsTimeVarying>false</IsTimeVarying>
											<ParameterControlType>11</ParameterControlType>
											<LowerBound>false</LowerBound>
											<UpperBound>false</UpperBound>
											<value>-91445760000000000,false,0,0,0,0,0,0</value>
										</parameter>
										<parameter authoringApp="PremierePro">
											<parameterid>3</parameterid>
											<name>Posición</name>
											<IsTimeVarying>false</IsTimeVarying>
											<value>-91445760000000000,0.71666663885116577:0.72777777910232544,0,0,0,0,0,0,5,4,0,0,0,0</value>
										</parameter>
										<parameter authoringApp="PremierePro">
											<parameterid>4</parameterid>
											<name>Escala</name>
											<IsTimeVarying>false</IsTimeVarying>
											<ParameterControlType>2</ParameterControlType>
											<LowerBound>0</LowerBound>
											<UpperBound>4000</UpperBound>
											<value>-91445760000000000,100.,0,0,0,0,0,0</value>
										</parameter>
										<parameter authoringApp="PremierePro">
											<parameterid>5</parameterid>
											<name>Escala horizontal</name>
											<IsTimeVarying>false</IsTimeVarying>
											<ParameterControlType>2</ParameterControlType>
											<LowerBound>0</LowerBound>
											<UpperBound>4000</UpperBound>
											<value>-91445760000000000,100.,0,0,0,0,0,0</value>
										</parameter>
										<parameter authoringApp="PremierePro">
											<parameterid>6</parameterid>
											<name> </name>
											<IsTimeVarying>false</IsTimeVarying>
											<ParameterControlType>4</ParameterControlType>
											<LowerBound>false</LowerBound>
											<UpperBound>true</UpperBound>
											<value>-91445760000000000,true,0,0,0,0,0,0</value>
										</parameter>
										<parameter authoringApp="PremierePro">
											<parameterid>7</parameterid>
											<name>Rotación</name>
											<IsTimeVarying>false</IsTimeVarying>
											<ParameterControlType>3</ParameterControlType>
											<LowerBound>-32768</LowerBound>
											<UpperBound>32767</UpperBound>
											<value>-91445760000000000,0.,0,0,0,0,0,0</value>
										</parameter>
										<parameter authoringApp="PremierePro">
											<parameterid>8</parameterid>
											<name>Opacidad</name>
											<IsTimeVarying>false</IsTimeVarying>
											<ParameterControlType>2</ParameterControlType>
											<LowerBound>0</LowerBound>
											<UpperBound>100</UpperBound>
											<value>-91445760000000000,100.,0,0,0,0,0,0</value>
										</parameter>
										<parameter authoringApp="PremierePro">
											<parameterid>9</parameterid>
											<name>Punto de anclaje</name>
											<IsTimeVarying>false</IsTimeVarying>
											<value>-91445760000000000,0:0,0,0,0,0,0,0,5,4,0,0,0,0</value>
										</parameter>
										<parameter authoringApp="PremierePro">
											<parameterid>10</parameterid>
											<name></name>
											<IsTimeVarying>false</IsTimeVarying>
											<ParameterControlType>12</ParameterControlType>
											<LowerBound>false</LowerBound>
											<UpperBound>false</UpperBound>
											<value>-91445760000000000,false,0,0,0,0,0,0</value>
										</parameter>
										<parameter authoringApp="PremierePro">
											<parameterid>11</parameterid>
											<name> </name>
											<IsTimeVarying>false</IsTimeVarying>
											<ParameterControlType>8</ParameterControlType>
											<LowerBound>0</LowerBound>
											<UpperBound>32768</UpperBound>
											<value>-91445760000000000,0.,0,0,0,0,0,0</value>
										</parameter>
										<parameter authoringApp="PremierePro">
											<parameterid>12</parameterid>
											<name> </name>
											<IsTimeVarying>false</IsTimeVarying>
											<ParameterControlType>8</ParameterControlType>
											<LowerBound>0</LowerBound>
											<UpperBound>32768</UpperBound>
											<value>-91445760000000000,0.,0,0,0,0,0,0</value>
										</parameter>
										<parameter authoringApp="PremierePro">
											<parameterid>13</parameterid>
											<name>start</name>
											<IsTimeVarying>false</IsTimeVarying>
											<ParameterControlType>8</ParameterControlType>
											<LowerBound>-100</LowerBound>
											<UpperBound>1000000000</UpperBound>
											<value>-91445760000000000,-1.,0,0,0,0,0,0</value>
										</parameter>
										<parameter authoringApp="PremierePro">
											<parameterid>14</parameterid>
											<name>end</name>
											<IsTimeVarying>false</IsTimeVarying>
											<ParameterControlType>8</ParameterControlType>
											<LowerBound>-100</LowerBound>
											<UpperBound>1000000000</UpperBound>
											<value>-91445760000000000,-1.,0,0,0,0,0,0</value>
										</parameter>
										<parameter authoringApp="PremierePro">
											<parameterid>15</parameterid>
											<name> </name>
											<IsTimeVarying>false</IsTimeVarying>
											<ParameterControlType>4</ParameterControlType>
											<LowerBound>false</LowerBound>
											<UpperBound>true</UpperBound>
											<value>-91445760000000000,false,0,0,0,0,0,0</value>
										</parameter>
										<parameter authoringApp="PremierePro">
											<parameterid>16</parameterid>
											<name> </name>
											<IsTimeVarying>false</IsTimeVarying>
											<ParameterControlType>4</ParameterControlType>
											<LowerBound>false</LowerBound>
											<UpperBound>true</UpperBound>
											<value>-91445760000000000,false,0,0,0,0,0,0</value>
										</parameter>
										<parameter authoringApp="PremierePro">
											<parameterid>17</parameterid>
											<name> </name>
											<IsTimeVarying>false</IsTimeVarying>
											<ParameterControlType>4</ParameterControlType>
											<LowerBound>false</LowerBound>
											<UpperBound>true</UpperBound>
											<value>-91445760000000000,false,0,0,0,0,0,0</value>
										</parameter>
										<parameter authoringApp="PremierePro">
											<parameterid>18</parameterid>
											<name> </name>
											<IsTimeVarying>false</IsTimeVarying>
											<ParameterControlType>4</ParameterControlType>
											<LowerBound>false</LowerBound>
											<UpperBound>true</UpperBound>
											<value>-91445760000000000,false,0,0,0,0,0,0</value>
										</parameter>
										<parameter authoringApp="PremierePro">
											<parameterid>19</parameterid>
											<name>Anchura principal</name>
											<IsTimeVarying>false</IsTimeVarying>
											<ParameterControlType>2</ParameterControlType>
											<LowerBound>0</LowerBound>
											<UpperBound>20000</UpperBound>
											<value>-91445760000000000,0.,0,0,0,0,0,0</value>
										</parameter>
										<parameter authoringApp="PremierePro">
											<parameterid>20</parameterid>
											<name>Altura principal</name>
											<IsTimeVarying>false</IsTimeVarying>
											<ParameterControlType>2</ParameterControlType>
											<LowerBound>0</LowerBound>
											<UpperBound>20000</UpperBound>
											<value>-91445760000000000,0.,0,0,0,0,0,0</value>
										</parameter>
										<parameter authoringApp="PremierePro">
											<parameterid>21</parameterid>
											<name>Rotación principal</name>
											<IsTimeVarying>false</IsTimeVarying>
											<ParameterControlType>3</ParameterControlType>
											<LowerBound>-32768</LowerBound>
											<UpperBound>32767</UpperBound>
											<value>-91445760000000000,0.,0,0,0,0,0,0</value>
										</parameter>
										<parameter authoringApp="PremierePro">
											<parameterid>22</parameterid>
											<name> </name>
											<IsTimeVarying>false</IsTimeVarying>
											<ParameterControlType>4</ParameterControlType>
											<LowerBound>false</LowerBound>
											<UpperBound>true</UpperBound>
											<value>-91445760000000000,false,0,0,0,0,0,0</value>
										</parameter>
									</effect>
								</filter>
								<filter>
									<effect>
										<name></name>
										<effectid>GraphicAndType</effectid>
										<effectcategory>graphic</effectcategory>
										<effecttype>filter</effecttype>
										<mediatype>video</mediatype>
										<pproBypass>false</pproBypass>
										<parameter authoringApp="PremierePro">
											<parameterid>1</parameterid>
											<name>Texto de origen</name>
											<hash>02804120-9d58-81d5-79f0-54b400000178</hash>
										</parameter>
										<parameter authoringApp="PremierePro">
											<parameterid>2</parameterid>
											<name>Transformar</name>
											<IsTimeVarying>false</IsTimeVarying>
											<ParameterControlType>11</ParameterControlType>
											<LowerBound>false</LowerBound>
											<UpperBound>false</UpperBound>
											<value>-91445760000000000,false,0,0,0,0,0,0</value>
										</parameter>
										<parameter authoringApp="PremierePro">
											<parameterid>3</parameterid>
											<name>Posición</name>
											<IsTimeVarying>false</IsTimeVarying>
											<value>-91445760000000000,0.58177083730697632:0.60833334922790527,0,0,0,0,0,0,5,4,0,0,0,0</value>
										</parameter>
										<parameter authoringApp="PremierePro">
											<parameterid>4</parameterid>
											<name>Escala</name>
											<IsTimeVarying>false</IsTimeVarying>
											<ParameterControlType>2</ParameterControlType>
											<LowerBound>0</LowerBound>
											<UpperBound>4000</UpperBound>
											<value>-91445760000000000,100.,0,0,0,0,0,0</value>
										</parameter>
										<parameter authoringApp="PremierePro">
											<parameterid>5</parameterid>
											<name>Escala horizontal</name>
											<IsTimeVarying>false</IsTimeVarying>
											<ParameterControlType>2</ParameterControlType>
											<LowerBound>0</LowerBound>
											<UpperBound>4000</UpperBound>
											<value>-91445760000000000,100.,0,0,0,0,0,0</value>
										</parameter>
										<parameter authoringApp="PremierePro">
											<parameterid>6</parameterid>
											<name> </name>
											<IsTimeVarying>false</IsTimeVarying>
											<ParameterControlType>4</ParameterControlType>
											<LowerBound>false</LowerBound>
											<UpperBound>true</UpperBound>
											<value>-91445760000000000,true,0,0,0,0,0,0</value>
										</parameter>
										<parameter authoringApp="PremierePro">
											<parameterid>7</parameterid>
											<name>Rotación</name>
											<IsTimeVarying>false</IsTimeVarying>
											<ParameterControlType>3</ParameterControlType>
											<LowerBound>-32768</LowerBound>
											<UpperBound>32767</UpperBound>
											<value>-91445760000000000,0.,0,0,0,0,0,0</value>
										</parameter>
										<parameter authoringApp="PremierePro">
											<parameterid>8</parameterid>
											<name>Opacidad</name>
											<IsTimeVarying>false</IsTimeVarying>
											<ParameterControlType>2</ParameterControlType>
											<LowerBound>0</LowerBound>
											<UpperBound>100</UpperBound>
											<value>-91445760000000000,100.,0,0,0,0,0,0</value>
										</parameter>
										<parameter authoringApp="PremierePro">
											<parameterid>9</parameterid>
											<name>Punto de anclaje</name>
											<IsTimeVarying>false</IsTimeVarying>
											<value>-91445760000000000,0:0,0,0,0,0,0,0,5,4,0,0,0,0</value>
										</parameter>
										<parameter authoringApp="PremierePro">
											<parameterid>10</parameterid>
											<name></name>
											<IsTimeVarying>false</IsTimeVarying>
											<ParameterControlType>12</ParameterControlType>
											<LowerBound>false</LowerBound>
											<UpperBound>false</UpperBound>
											<value>-91445760000000000,false,0,0,0,0,0,0</value>
										</parameter>
										<parameter authoringApp="PremierePro">
											<parameterid>11</parameterid>
											<name> </name>
											<IsTimeVarying>false</IsTimeVarying>
											<ParameterControlType>8</ParameterControlType>
											<LowerBound>0</LowerBound>
											<UpperBound>32768</UpperBound>
											<value>-91445760000000000,0.,0,0,0,0,0,0</value>
										</parameter>
										<parameter authoringApp="PremierePro">
											<parameterid>12</parameterid>
											<name> </name>
											<IsTimeVarying>false</IsTimeVarying>
											<ParameterControlType>8</ParameterControlType>
											<LowerBound>0</LowerBound>
											<UpperBound>32768</UpperBound>
											<value>-91445760000000000,0.,0,0,0,0,0,0</value>
										</parameter>
										<parameter authoringApp="PremierePro">
											<parameterid>13</parameterid>
											<name>start</name>
											<IsTimeVarying>false</IsTimeVarying>
											<ParameterControlType>8</ParameterControlType>
											<LowerBound>-100</LowerBound>
											<UpperBound>1000000000</UpperBound>
											<value>-91445760000000000,-1.,0,0,0,0,0,0</value>
										</parameter>
										<parameter authoringApp="PremierePro">
											<parameterid>14</parameterid>
											<name>end</name>
											<IsTimeVarying>false</IsTimeVarying>
											<ParameterControlType>8</ParameterControlType>
											<LowerBound>-100</LowerBound>
											<UpperBound>1000000000</UpperBound>
											<value>-91445760000000000,-1.,0,0,0,0,0,0</value>
										</parameter>
										<parameter authoringApp="PremierePro">
											<parameterid>15</parameterid>
											<name> </name>
											<IsTimeVarying>false</IsTimeVarying>
											<ParameterControlType>4</ParameterControlType>
											<LowerBound>false</LowerBound>
											<UpperBound>true</UpperBound>
											<value>-91445760000000000,false,0,0,0,0,0,0</value>
										</parameter>
										<parameter authoringApp="PremierePro">
											<parameterid>16</parameterid>
											<name> </name>
											<IsTimeVarying>false</IsTimeVarying>
											<ParameterControlType>4</ParameterControlType>
											<LowerBound>false</LowerBound>
											<UpperBound>true</UpperBound>
											<value>-91445760000000000,false,0,0,0,0,0,0</value>
										</parameter>
										<parameter authoringApp="PremierePro">
											<parameterid>17</parameterid>
											<name> </name>
											<IsTimeVarying>false</IsTimeVarying>
											<ParameterControlType>4</ParameterControlType>
											<LowerBound>false</LowerBound>
											<UpperBound>true</UpperBound>
											<value>-91445760000000000,false,0,0,0,0,0,0</value>
										</parameter>
										<parameter authoringApp="PremierePro">
											<parameterid>18</parameterid>
											<name> </name>
											<IsTimeVarying>false</IsTimeVarying>
											<ParameterControlType>4</ParameterControlType>
											<LowerBound>false</LowerBound>
											<UpperBound>true</UpperBound>
											<value>-91445760000000000,false,0,0,0,0,0,0</value>
										</parameter>
										<parameter authoringApp="PremierePro">
											<parameterid>19</parameterid>
											<name>Anchura principal</name>
											<IsTimeVarying>false</IsTimeVarying>
											<ParameterControlType>2</ParameterControlType>
											<LowerBound>0</LowerBound>
											<UpperBound>20000</UpperBound>
											<value>-91445760000000000,0.,0,0,0,0,0,0</value>
										</parameter>
										<parameter authoringApp="PremierePro">
											<parameterid>20</parameterid>
											<name>Altura principal</name>
											<IsTimeVarying>false</IsTimeVarying>
											<ParameterControlType>2</ParameterControlType>
											<LowerBound>0</LowerBound>
											<UpperBound>20000</UpperBound>
											<value>-91445760000000000,0.,0,0,0,0,0,0</value>
										</parameter>
										<parameter authoringApp="PremierePro">
											<parameterid>21</parameterid>
											<name>Rotación principal</name>
											<IsTimeVarying>false</IsTimeVarying>
											<ParameterControlType>3</ParameterControlType>
											<LowerBound>-32768</LowerBound>
											<UpperBound>32767</UpperBound>
											<value>-91445760000000000,0.,0,0,0,0,0,0</value>
										</parameter>
										<parameter authoringApp="PremierePro">
											<parameterid>22</parameterid>
											<name> </name>
											<IsTimeVarying>false</IsTimeVarying>
											<ParameterControlType>4</ParameterControlType>
											<LowerBound>false</LowerBound>
											<UpperBound>true</UpperBound>
											<value>-91445760000000000,false,0,0,0,0,0,0</value>
										</parameter>
									</effect>
								</filter>
								<filter>
									<effect>
										<name></name>
										<effectid>GraphicAndType</effectid>
										<effectcategory>graphic</effectcategory>
										<effecttype>filter</effecttype>
										<mediatype>video</mediatype>
										<pproBypass>false</pproBypass>
										<parameter authoringApp="PremierePro">
											<parameterid>1</parameterid>
											<name>Texto de origen</name>
											<hash>02804120-9d58-81d5-79f0-54b400000178</hash>
										</parameter>
										<parameter authoringApp="PremierePro">
											<parameterid>2</parameterid>
											<name>Transformar</name>
											<IsTimeVarying>false</IsTimeVarying>
											<ParameterControlType>11</ParameterControlType>
											<LowerBound>false</LowerBound>
											<UpperBound>false</UpperBound>
											<value>-91445760000000000,false,0,0,0,0,0,0</value>
										</parameter>
										<parameter authoringApp="PremierePro">
											<parameterid>3</parameterid>
											<name>Posición</name>
											<IsTimeVarying>false</IsTimeVarying>
											<value>-91445760000000000,0.42760416865348816:0.50648146867752075,0,0,0,0,0,0,5,4,0,0,0,0</value>
										</parameter>
										<parameter authoringApp="PremierePro">
											<parameterid>4</parameterid>
											<name>Escala</name>
											<IsTimeVarying>false</IsTimeVarying>
											<ParameterControlType>2</ParameterControlType>
											<LowerBound>0</LowerBound>
											<UpperBound>4000</UpperBound>
											<value>-91445760000000000,100.,0,0,0,0,0,0</value>
										</parameter>
										<parameter authoringApp="PremierePro">
											<parameterid>5</parameterid>
											<name>Escala horizontal</name>
											<IsTimeVarying>false</IsTimeVarying>
											<ParameterControlType>2</ParameterControlType>
											<LowerBound>0</LowerBound>
											<UpperBound>4000</UpperBound>
											<value>-91445760000000000,100.,0,0,0,0,0,0</value>
										</parameter>
										<parameter authoringApp="PremierePro">
											<parameterid>6</parameterid>
											<name> </name>
											<IsTimeVarying>false</IsTimeVarying>
											<ParameterControlType>4</ParameterControlType>
											<LowerBound>false</LowerBound>
											<UpperBound>true</UpperBound>
											<value>-91445760000000000,true,0,0,0,0,0,0</value>
										</parameter>
										<parameter authoringApp="PremierePro">
											<parameterid>7</parameterid>
											<name>Rotación</name>
											<IsTimeVarying>false</IsTimeVarying>
											<ParameterControlType>3</ParameterControlType>
											<LowerBound>-32768</LowerBound>
											<UpperBound>32767</UpperBound>
											<value>-91445760000000000,0.,0,0,0,0,0,0</value>
										</parameter>
										<parameter authoringApp="PremierePro">
											<parameterid>8</parameterid>
											<name>Opacidad</name>
											<IsTimeVarying>false</IsTimeVarying>
											<ParameterControlType>2</ParameterControlType>
											<LowerBound>0</LowerBound>
											<UpperBound>100</UpperBound>
											<value>-91445760000000000,100.,0,0,0,0,0,0</value>
										</parameter>
										<parameter authoringApp="PremierePro">
											<parameterid>9</parameterid>
											<name>Punto de anclaje</name>
											<IsTimeVarying>false</IsTimeVarying>
											<value>-91445760000000000,0:0,0,0,0,0,0,0,5,4,0,0,0,0</value>
										</parameter>
										<parameter authoringApp="PremierePro">
											<parameterid>10</parameterid>
											<name></name>
											<IsTimeVarying>false</IsTimeVarying>
											<ParameterControlType>12</ParameterControlType>
											<LowerBound>false</LowerBound>
											<UpperBound>false</UpperBound>
											<value>-91445760000000000,false,0,0,0,0,0,0</value>
										</parameter>
										<parameter authoringApp="PremierePro">
											<parameterid>11</parameterid>
											<name> </name>
											<IsTimeVarying>false</IsTimeVarying>
											<ParameterControlType>8</ParameterControlType>
											<LowerBound>0</LowerBound>
											<UpperBound>32768</UpperBound>
											<value>-91445760000000000,0.,0,0,0,0,0,0</value>
										</parameter>
										<parameter authoringApp="PremierePro">
											<parameterid>12</parameterid>
											<name> </name>
											<IsTimeVarying>false</IsTimeVarying>
											<ParameterControlType>8</ParameterControlType>
											<LowerBound>0</LowerBound>
											<UpperBound>32768</UpperBound>
											<value>-91445760000000000,0.,0,0,0,0,0,0</value>
										</parameter>
										<parameter authoringApp="PremierePro">
											<parameterid>13</parameterid>
											<name>start</name>
											<IsTimeVarying>false</IsTimeVarying>
											<ParameterControlType>8</ParameterControlType>
											<LowerBound>-100</LowerBound>
											<UpperBound>1000000000</UpperBound>
											<value>-91445760000000000,1.,0,0,0,0,0,0</value>
										</parameter>
										<parameter authoringApp="PremierePro">
											<parameterid>14</parameterid>
											<name>end</name>
											<IsTimeVarying>false</IsTimeVarying>
											<ParameterControlType>8</ParameterControlType>
											<LowerBound>-100</LowerBound>
											<UpperBound>1000000000</UpperBound>
											<value>-91445760000000000,1.,0,0,0,0,0,0</value>
										</parameter>
										<parameter authoringApp="PremierePro">
											<parameterid>15</parameterid>
											<name> </name>
											<IsTimeVarying>false</IsTimeVarying>
											<ParameterControlType>4</ParameterControlType>
											<LowerBound>false</LowerBound>
											<UpperBound>true</UpperBound>
											<value>-91445760000000000,false,0,0,0,0,0,0</value>
										</parameter>
										<parameter authoringApp="PremierePro">
											<parameterid>16</parameterid>
											<name> </name>
											<IsTimeVarying>false</IsTimeVarying>
											<ParameterControlType>4</ParameterControlType>
											<LowerBound>false</LowerBound>
											<UpperBound>true</UpperBound>
											<value>-91445760000000000,false,0,0,0,0,0,0</value>
										</parameter>
										<parameter authoringApp="PremierePro">
											<parameterid>17</parameterid>
											<name> </name>
											<IsTimeVarying>false</IsTimeVarying>
											<ParameterControlType>4</ParameterControlType>
											<LowerBound>false</LowerBound>
											<UpperBound>true</UpperBound>
											<value>-91445760000000000,false,0,0,0,0,0,0</value>
										</parameter>
										<parameter authoringApp="PremierePro">
											<parameterid>18</parameterid>
											<name> </name>
											<IsTimeVarying>false</IsTimeVarying>
											<ParameterControlType>4</ParameterControlType>
											<LowerBound>false</LowerBound>
											<UpperBound>true</UpperBound>
											<value>-91445760000000000,false,0,0,0,0,0,0</value>
										</parameter>
										<parameter authoringApp="PremierePro">
											<parameterid>19</parameterid>
											<name>Anchura principal</name>
											<IsTimeVarying>false</IsTimeVarying>
											<ParameterControlType>2</ParameterControlType>
											<LowerBound>0</LowerBound>
											<UpperBound>20000</UpperBound>
											<value>-91445760000000000,0.,0,0,0,0,0,0</value>
										</parameter>
										<parameter authoringApp="PremierePro">
											<parameterid>20</parameterid>
											<name>Altura principal</name>
											<IsTimeVarying>false</IsTimeVarying>
											<ParameterControlType>2</ParameterControlType>
											<LowerBound>0</LowerBound>
											<UpperBound>20000</UpperBound>
											<value>-91445760000000000,0.,0,0,0,0,0,0</value>
										</parameter>
										<parameter authoringApp="PremierePro">
											<parameterid>21</parameterid>
											<name>Rotación principal</name>
											<IsTimeVarying>false</IsTimeVarying>
											<ParameterControlType>3</ParameterControlType>
											<LowerBound>-32768</LowerBound>
											<UpperBound>32767</UpperBound>
											<value>-91445760000000000,0.,0,0,0,0,0,0</value>
										</parameter>
										<parameter authoringApp="PremierePro">
											<parameterid>22</parameterid>
											<name> </name>
											<IsTimeVarying>false</IsTimeVarying>
											<ParameterControlType>4</ParameterControlType>
											<LowerBound>false</LowerBound>
											<UpperBound>true</UpperBound>
											<value>-91445760000000000,false,0,0,0,0,0,0</value>
										</parameter>
									</effect>
								</filter>
								<filter>
									<effect>
										<name></name>
										<effectid>GraphicAndType</effectid>
										<effectcategory>graphic</effectcategory>
										<effecttype>filter</effecttype>
										<mediatype>video</mediatype>
										<pproBypass>false</pproBypass>
										<parameter authoringApp="PremierePro">
											<parameterid>1</parameterid>
											<name>Texto de origen</name>
											<hash>02804120-9d58-81d5-79f0-54b400000178</hash>
										</parameter>
										<parameter authoringApp="PremierePro">
											<parameterid>2</parameterid>
											<name>Transformar</name>
											<IsTimeVarying>false</IsTimeVarying>
											<ParameterControlType>11</ParameterControlType>
											<LowerBound>false</LowerBound>
											<UpperBound>false</UpperBound>
											<value>-91445760000000000,false,0,0,0,0,0,0</value>
										</parameter>
										<parameter authoringApp="PremierePro">
											<parameterid>3</parameterid>
											<name>Posición</name>
											<IsTimeVarying>false</IsTimeVarying>
											<value>-91445760000000000,0.43020832538604736:0.50648146867752075,0,0,0,0,0,0,5,4,0,0,0,0</value>
										</parameter>
										<parameter authoringApp="PremierePro">
											<parameterid>4</parameterid>
											<name>Escala</name>
											<IsTimeVarying>false</IsTimeVarying>
											<ParameterControlType>2</ParameterControlType>
											<LowerBound>0</LowerBound>
											<UpperBound>4000</UpperBound>
											<value>-91445760000000000,100.,0,0,0,0,0,0</value>
										</parameter>
										<parameter authoringApp="PremierePro">
											<parameterid>5</parameterid>
											<name>Escala horizontal</name>
											<IsTimeVarying>false</IsTimeVarying>
											<ParameterControlType>2</ParameterControlType>
											<LowerBound>0</LowerBound>
											<UpperBound>4000</UpperBound>
											<value>-91445760000000000,100.,0,0,0,0,0,0</value>
										</parameter>
										<parameter authoringApp="PremierePro">
											<parameterid>6</parameterid>
											<name> </name>
											<IsTimeVarying>false</IsTimeVarying>
											<ParameterControlType>4</ParameterControlType>
											<LowerBound>false</LowerBound>
											<UpperBound>true</UpperBound>
											<value>-91445760000000000,true,0,0,0,0,0,0</value>
										</parameter>
										<parameter authoringApp="PremierePro">
											<parameterid>7</parameterid>
											<name>Rotación</name>
											<IsTimeVarying>false</IsTimeVarying>
											<ParameterControlType>3</ParameterControlType>
											<LowerBound>-32768</LowerBound>
											<UpperBound>32767</UpperBound>
											<value>-91445760000000000,0.,0,0,0,0,0,0</value>
										</parameter>
										<parameter authoringApp="PremierePro">
											<parameterid>8</parameterid>
											<name>Opacidad</name>
											<IsTimeVarying>false</IsTimeVarying>
											<ParameterControlType>2</ParameterControlType>
											<LowerBound>0</LowerBound>
											<UpperBound>100</UpperBound>
											<value>-91445760000000000,100.,0,0,0,0,0,0</value>
										</parameter>
										<parameter authoringApp="PremierePro">
											<parameterid>9</parameterid>
											<name>Punto de anclaje</name>
											<IsTimeVarying>false</IsTimeVarying>
											<value>-91445760000000000,0:0,0,0,0,0,0,0,5,4,0,0,0,0</value>
										</parameter>
										<parameter authoringApp="PremierePro">
											<parameterid>10</parameterid>
											<name></name>
											<IsTimeVarying>false</IsTimeVarying>
											<ParameterControlType>12</ParameterControlType>
											<LowerBound>false</LowerBound>
											<UpperBound>false</UpperBound>
											<value>-91445760000000000,false,0,0,0,0,0,0</value>
										</parameter>
										<parameter authoringApp="PremierePro">
											<parameterid>11</parameterid>
											<name> </name>
											<IsTimeVarying>false</IsTimeVarying>
											<ParameterControlType>8</ParameterControlType>
											<LowerBound>0</LowerBound>
											<UpperBound>32768</UpperBound>
											<value>-91445760000000000,0.,0,0,0,0,0,0</value>
										</parameter>
										<parameter authoringApp="PremierePro">
											<parameterid>12</parameterid>
											<name> </name>
											<IsTimeVarying>false</IsTimeVarying>
											<ParameterControlType>8</ParameterControlType>
											<LowerBound>0</LowerBound>
											<UpperBound>32768</UpperBound>
											<value>-91445760000000000,0.,0,0,0,0,0,0</value>
										</parameter>
										<parameter authoringApp="PremierePro">
											<parameterid>13</parameterid>
											<name>start</name>
											<IsTimeVarying>false</IsTimeVarying>
											<ParameterControlType>8</ParameterControlType>
											<LowerBound>-100</LowerBound>
											<UpperBound>1000000000</UpperBound>
											<value>-91445760000000000,-1.,0,0,0,0,0,0</value>
										</parameter>
										<parameter authoringApp="PremierePro">
											<parameterid>14</parameterid>
											<name>end</name>
											<IsTimeVarying>false</IsTimeVarying>
											<ParameterControlType>8</ParameterControlType>
											<LowerBound>-100</LowerBound>
											<UpperBound>1000000000</UpperBound>
											<value>-91445760000000000,-1.,0,0,0,0,0,0</value>
										</parameter>
										<parameter authoringApp="PremierePro">
											<parameterid>15</parameterid>
											<name> </name>
											<IsTimeVarying>false</IsTimeVarying>
											<ParameterControlType>4</ParameterControlType>
											<LowerBound>false</LowerBound>
											<UpperBound>true</UpperBound>
											<value>-91445760000000000,false,0,0,0,0,0,0</value>
										</parameter>
										<parameter authoringApp="PremierePro">
											<parameterid>16</parameterid>
											<name> </name>
											<IsTimeVarying>false</IsTimeVarying>
											<ParameterControlType>4</ParameterControlType>
											<LowerBound>false</LowerBound>
											<UpperBound>true</UpperBound>
											<value>-91445760000000000,false,0,0,0,0,0,0</value>
										</parameter>
										<parameter authoringApp="PremierePro">
											<parameterid>17</parameterid>
											<name> </name>
											<IsTimeVarying>false</IsTimeVarying>
											<ParameterControlType>4</ParameterControlType>
											<LowerBound>false</LowerBound>
											<UpperBound>true</UpperBound>
											<value>-91445760000000000,false,0,0,0,0,0,0</value>
										</parameter>
										<parameter authoringApp="PremierePro">
											<parameterid>18</parameterid>
											<name> </name>
											<IsTimeVarying>false</IsTimeVarying>
											<ParameterControlType>4</ParameterControlType>
											<LowerBound>false</LowerBound>
											<UpperBound>true</UpperBound>
											<value>-91445760000000000,false,0,0,0,0,0,0</value>
										</parameter>
										<parameter authoringApp="PremierePro">
											<parameterid>19</parameterid>
											<name>Anchura principal</name>
											<IsTimeVarying>false</IsTimeVarying>
											<ParameterControlType>2</ParameterControlType>
											<LowerBound>0</LowerBound>
											<UpperBound>20000</UpperBound>
											<value>-91445760000000000,0.,0,0,0,0,0,0</value>
										</parameter>
										<parameter authoringApp="PremierePro">
											<parameterid>20</parameterid>
											<name>Altura principal</name>
											<IsTimeVarying>false</IsTimeVarying>
											<ParameterControlType>2</ParameterControlType>
											<LowerBound>0</LowerBound>
											<UpperBound>20000</UpperBound>
											<value>-91445760000000000,0.,0,0,0,0,0,0</value>
										</parameter>
										<parameter authoringApp="PremierePro">
											<parameterid>21</parameterid>
											<name>Rotación principal</name>
											<IsTimeVarying>false</IsTimeVarying>
											<ParameterControlType>3</ParameterControlType>
											<LowerBound>-32768</LowerBound>
											<UpperBound>32767</UpperBound>
											<value>-91445760000000000,0.,0,0,0,0,0,0</value>
										</parameter>
										<parameter authoringApp="PremierePro">
											<parameterid>22</parameterid>
											<name> </name>
											<IsTimeVarying>false</IsTimeVarying>
											<ParameterControlType>4</ParameterControlType>
											<LowerBound>false</LowerBound>
											<UpperBound>true</UpperBound>
											<value>-91445760000000000,false,0,0,0,0,0,0</value>
										</parameter>
									</effect>
								</filter>
								<filter>
									<effect>
										<name>Gaussian Blur</name>
										<effectid>Gaussian Blur</effectid>
										<effectcategory>Blur</effectcategory>
										<effecttype>motion</effecttype>
										<mediatype>video</mediatype>
										<pproBypass>false</pproBypass>
										<pproExpanded>false</pproExpanded>
										<parameter authoringApp="PremierePro">
											<parameterid>radius</parameterid>
											<name>Radius</name>
											<valuemin>0</valuemin>
											<valuemax>100</valuemax>
											<value>0</value>
											<keyframe>
												<when>107908</when>
												<value>62</value>
											</keyframe>
											<keyframe>
												<when>107920</when>
												<value>0</value>
											</keyframe>
											<keyframe>
												<when>107973</when>
												<value>0</value>
											</keyframe>
											<keyframe>
												<when>108003</when>
												<value>50</value>
											</keyframe>
										</parameter>
									</effect>
								</filter>
								<logginginfo>
									<description></description>
									<scene></scene>
									<shottake></shottake>
									<lognote></lognote>
									<good></good>
									<originalvideofilename></originalvideofilename>
									<originalaudiofilename></originalaudiofilename>
								</logginginfo>
								<colorinfo>
									<lut></lut>
									<lut1></lut1>
									<asc_sop></asc_sop>
									<asc_sat></asc_sat>
									<lut2></lut2>
								</colorinfo>
								<labels>
								</labels>
							</clipitem>
							<enabled>TRUE</enabled>
							<locked>FALSE</locked>
						</track>
						<track TL.SQTrackShy="0" TL.SQTrackExpandedHeight="41" TL.SQTrackExpanded="0" MZ.TrackTargeted="0">
							<enabled>TRUE</enabled>
							<locked>FALSE</locked>
						</track>
					</video>
					<audio>
						<numOutputChannels>2</numOutputChannels>
						<format>
							<samplecharacteristics>
								<depth>16</depth>
								<samplerate>48000</samplerate>
							</samplecharacteristics>
						</format>
						<outputs>
							<group>
								<index>1</index>
								<numchannels>1</numchannels>
								<downmix>0</downmix>
								<channel>
									<index>1</index>
								</channel>
							</group>
							<group>
								<index>2</index>
								<numchannels>1</numchannels>
								<downmix>0</downmix>
								<channel>
									<index>2</index>
								</channel>
							</group>
						</outputs>
						<track TL.SQTrackAudioKeyframeStyle="0" TL.SQTrackShy="0" TL.SQTrackExpandedHeight="41" TL.SQTrackExpanded="0" MZ.TrackTargeted="1" PannerCurrentValue="0.5" PannerIsInverted="true" PannerStartKeyframe="-91445760000000000,0.5,0,0,0,0,0,0" PannerName="Equilibrio" currentExplodedTrackIndex="0" totalExplodedTrackCount="2" premiereTrackType="Stereo">
							<enabled>TRUE</enabled>
							<locked>FALSE</locked>
							<outputchannelindex>1</outputchannelindex>
						</track>
						<track TL.SQTrackAudioKeyframeStyle="0" TL.SQTrackShy="0" TL.SQTrackExpandedHeight="41" TL.SQTrackExpanded="0" MZ.TrackTargeted="1" PannerCurrentValue="0.5" PannerIsInverted="true" PannerStartKeyframe="-91445760000000000,0.5,0,0,0,0,0,0" PannerName="Equilibrio" currentExplodedTrackIndex="1" totalExplodedTrackCount="2" premiereTrackType="Stereo">
							<enabled>TRUE</enabled>
							<locked>FALSE</locked>
							<outputchannelindex>2</outputchannelindex>
						</track>
						<track TL.SQTrackAudioKeyframeStyle="0" TL.SQTrackShy="0" TL.SQTrackExpandedHeight="41" TL.SQTrackExpanded="0" MZ.TrackTargeted="1" PannerCurrentValue="0.5" PannerIsInverted="true" PannerStartKeyframe="-91445760000000000,0.5,0,0,0,0,0,0" PannerName="Equilibrio" currentExplodedTrackIndex="0" totalExplodedTrackCount="2" premiereTrackType="Stereo">
							<enabled>TRUE</enabled>
							<locked>FALSE</locked>
							<outputchannelindex>1</outputchannelindex>
						</track>
						<track TL.SQTrackAudioKeyframeStyle="0" TL.SQTrackShy="0" TL.SQTrackExpandedHeight="41" TL.SQTrackExpanded="0" MZ.TrackTargeted="1" PannerCurrentValue="0.5" PannerIsInverted="true" PannerStartKeyframe="-91445760000000000,0.5,0,0,0,0,0,0" PannerName="Equilibrio" currentExplodedTrackIndex="1" totalExplodedTrackCount="2" premiereTrackType="Stereo">
							<enabled>TRUE</enabled>
							<locked>FALSE</locked>
							<outputchannelindex>2</outputchannelindex>
						</track>
						<track TL.SQTrackAudioKeyframeStyle="0" TL.SQTrackShy="0" TL.SQTrackExpandedHeight="41" TL.SQTrackExpanded="0" MZ.TrackTargeted="1" PannerCurrentValue="0.5" PannerIsInverted="true" PannerStartKeyframe="-91445760000000000,0.5,0,0,0,0,0,0" PannerName="Equilibrio" currentExplodedTrackIndex="0" totalExplodedTrackCount="2" premiereTrackType="Stereo">
							<enabled>TRUE</enabled>
							<locked>FALSE</locked>
							<outputchannelindex>1</outputchannelindex>
						</track>
						<track TL.SQTrackAudioKeyframeStyle="0" TL.SQTrackShy="0" TL.SQTrackExpandedHeight="41" TL.SQTrackExpanded="0" MZ.TrackTargeted="1" PannerCurrentValue="0.5" PannerIsInverted="true" PannerStartKeyframe="-91445760000000000,0.5,0,0,0,0,0,0" PannerName="Equilibrio" currentExplodedTrackIndex="1" totalExplodedTrackCount="2" premiereTrackType="Stereo">
							<enabled>TRUE</enabled>
							<locked>FALSE</locked>
							<outputchannelindex>2</outputchannelindex>
						</track>
					</audio>
				</media>
				<timecode>
					<rate>
						<timebase>30</timebase>
						<ntsc>TRUE</ntsc>
					</rate>
					<string>00:00:00:00</string>
					<frame>0</frame>
					<displayformat>NDF</displayformat>
				</timecode>
				<labels>
					<label2>Forest</label2>
				</labels>
				<logginginfo>
					<description></description>
					<scene></scene>
					<shottake></shottake>
					<lognote></lognote>
					<good></good>
					<originalvideofilename></originalvideofilename>
					<originalaudiofilename></originalaudiofilename>
				</logginginfo>
			</sequence>
			<bin>
				<name>Medios de plantilla de gráficos animados</name>
				<children>
					<clip id="masterclip-6" explodedTracks="true">
						<uuid>76c34a1c-1af8-4ed0-ad32-fd0fc4fcfe2c</uuid>
						<masterclipid>masterclip-6</masterclipid>
						<ismasterclip>TRUE</ismasterclip>
						<duration>48</duration>
						<rate>
							<timebase>24</timebase>
							<ntsc>TRUE</ntsc>
						</rate>
						<name>Transición de juegos</name>
						<media>
							<video>
								<track>
									<clipitem id="clipitem-19">
										<masterclipid>masterclip-6</masterclipid>
										<name>Transición de juegos</name>
										<rate>
											<timebase>24</timebase>
											<ntsc>TRUE</ntsc>
										</rate>
										<alphatype>straight</alphatype>
										<pixelaspectratio>square</pixelaspectratio>
										<anamorphic>FALSE</anamorphic>
										<file id="file-6">
											<name>Gaming Transition/Transición de juegos.aegraphic</name>
											<pathurl>file://localhost/C%3a/Users/lab1/Downloads/Videos%20Proyecto%20-%20copia/Motion%20Graphics%20Template%20Media/6f9b82db-beb0-4ebb-8892-3cef7a3a5ff9/Transici%c3%b3n%20de%20juegos.aegraphic</pathurl>
											<rate>
												<timebase>24</timebase>
												<ntsc>TRUE</ntsc>
											</rate>
											<duration>48</duration>
											<timecode>
												<rate>
													<timebase>24</timebase>
													<ntsc>TRUE</ntsc>
												</rate>
												<string>00:00:00:00</string>
												<frame>0</frame>
												<displayformat>NDF</displayformat>
											</timecode>
											<media>
												<video>
													<samplecharacteristics>
														<rate>
															<timebase>24</timebase>
															<ntsc>TRUE</ntsc>
														</rate>
														<width>1920</width>
														<height>1080</height>
														<anamorphic>FALSE</anamorphic>
														<pixelaspectratio>square</pixelaspectratio>
														<fielddominance>lower</fielddominance>
													</samplecharacteristics>
												</video>
											</media>
										</file>
									</clipitem>
								</track>
							</video>
						</media>
						<logginginfo>
							<description></description>
							<scene></scene>
							<shottake></shottake>
							<lognote></lognote>
							<good></good>
							<originalvideofilename></originalvideofilename>
							<originalaudiofilename></originalaudiofilename>
						</logginginfo>
						<colorinfo>
							<lut></lut>
							<lut1></lut1>
							<asc_sop></asc_sop>
							<asc_sat></asc_sat>
							<lut2></lut2>
						</colorinfo>
						<labels>
						</labels>
					</clip>
					<clip id="masterclip-7" explodedTracks="true">
						<uuid>60642ee3-108c-4533-b371-38455f38ed78</uuid>
						<masterclipid>masterclip-7</masterclipid>
						<ismasterclip>TRUE</ismasterclip>
						<duration>150</duration>
						<rate>
							<timebase>30</timebase>
							<ntsc>TRUE</ntsc>
						</rate>
						<in>0</in>
						<out>1827</out>
						<name>Logo_Dummy.png</name>
						<media>
							<video>
								<track>
									<clipitem id="clipitem-20">
										<masterclipid>masterclip-7</masterclipid>
										<name>Logo_Dummy.png</name>
										<rate>
											<timebase>30</timebase>
											<ntsc>TRUE</ntsc>
										</rate>
										<alphatype>straight</alphatype>
										<pixelaspectratio>square</pixelaspectratio>
										<anamorphic>FALSE</anamorphic>
										<file id="file-7">
											<name>Logo_Dummy.png</name>
											<pathurl>file://localhost/C%3a/Users/lab1/Downloads/Videos%20Proyecto%20-%20copia/Motion%20Graphics%20Template%20Media/a2a0177f-3ac8-402e-962f-71f86d851325/Logotipo%20de%20presentaci%c3%b3n%20cl%c3%a1sico/Logo_Dummy.png</pathurl>
											<rate>
												<timebase>30</timebase>
												<ntsc>TRUE</ntsc>
											</rate>
											<timecode>
												<rate>
													<timebase>30</timebase>
													<ntsc>TRUE</ntsc>
												</rate>
												<string>00:00:00:00</string>
												<frame>0</frame>
												<displayformat>NDF</displayformat>
											</timecode>
											<media>
												<video>
													<samplecharacteristics>
														<rate>
															<timebase>30</timebase>
															<ntsc>TRUE</ntsc>
														</rate>
														<width>456</width>
														<height>398</height>
														<anamorphic>FALSE</anamorphic>
														<pixelaspectratio>square</pixelaspectratio>
														<fielddominance>none</fielddominance>
													</samplecharacteristics>
												</video>
											</media>
										</file>
									</clipitem>
								</track>
							</video>
						</media>
						<logginginfo>
							<description></description>
							<scene></scene>
							<shottake></shottake>
							<lognote></lognote>
							<good></good>
							<originalvideofilename></originalvideofilename>
							<originalaudiofilename></originalaudiofilename>
						</logginginfo>
						<colorinfo>
							<lut></lut>
							<lut1></lut1>
							<asc_sop></asc_sop>
							<asc_sat></asc_sat>
							<lut2></lut2>
						</colorinfo>
						<labels>
							<label2>Lavender</label2>
						</labels>
					</clip>
					<clip id="masterclip-8" explodedTracks="true">
						<uuid>da7c671a-a98d-4161-94d3-fbe97dfe8fec</uuid>
						<masterclipid>masterclip-8</masterclipid>
						<ismasterclip>TRUE</ismasterclip>
						<duration>150</duration>
						<rate>
							<timebase>30</timebase>
							<ntsc>TRUE</ntsc>
						</rate>
						<in>0</in>
						<out>1827</out>
						<name>Logo_Dummy.png</name>
						<media>
							<video>
								<track>
									<clipitem id="clipitem-21">
										<masterclipid>masterclip-8</masterclipid>
										<name>Logo_Dummy.png</name>
										<rate>
											<timebase>30</timebase>
											<ntsc>TRUE</ntsc>
										</rate>
										<alphatype>straight</alphatype>
										<pixelaspectratio>square</pixelaspectratio>
										<anamorphic>FALSE</anamorphic>
										<file id="file-8">
											<name>Logo_Dummy.png</name>
											<pathurl>file://localhost/C%3a/Users/lab1/Downloads/Videos%20Proyecto%20-%20copia/Motion%20Graphics%20Template%20Media/883d9883-0aa9-4500-b3f0-286198ee67f7/Claqueta%20de%20pel%c3%adcula/Logo_Dummy.png</pathurl>
											<rate>
												<timebase>30</timebase>
												<ntsc>TRUE</ntsc>
											</rate>
											<timecode>
												<rate>
													<timebase>30</timebase>
													<ntsc>TRUE</ntsc>
												</rate>
												<string>00:00:00:00</string>
												<frame>0</frame>
												<displayformat>NDF</displayformat>
											</timecode>
											<media>
												<video>
													<samplecharacteristics>
														<rate>
															<timebase>30</timebase>
															<ntsc>TRUE</ntsc>
														</rate>
														<width>456</width>
														<height>398</height>
														<anamorphic>FALSE</anamorphic>
														<pixelaspectratio>square</pixelaspectratio>
														<fielddominance>none</fielddominance>
													</samplecharacteristics>
												</video>
											</media>
										</file>
									</clipitem>
								</track>
							</video>
						</media>
						<logginginfo>
							<description></description>
							<scene></scene>
							<shottake></shottake>
							<lognote></lognote>
							<good></good>
							<originalvideofilename></originalvideofilename>
							<originalaudiofilename></originalaudiofilename>
						</logginginfo>
						<colorinfo>
							<lut></lut>
							<lut1></lut1>
							<asc_sop></asc_sop>
							<asc_sat></asc_sat>
							<lut2></lut2>
						</colorinfo>
						<labels>
							<label2>Lavender</label2>
						</labels>
					</clip>
					<clip id="masterclip-9" explodedTracks="true">
						<uuid>05a909b0-74b5-412b-b72a-e18649c3f391</uuid>
						<masterclipid>masterclip-9</masterclipid>
						<ismasterclip>TRUE</ismasterclip>
						<duration>1294705</duration>
						<rate>
							<timebase>30</timebase>
							<ntsc>TRUE</ntsc>
						</rate>
						<in>0</in>
						<out>3598</out>
						<name>HD Bars and Tone</name>
						<media>
							<video>
								<track>
									<clipitem id="clipitem-22">
										<masterclipid>masterclip-9</masterclipid>
										<name>HD Bars and Tone</name>
										<rate>
											<timebase>30</timebase>
											<ntsc>TRUE</ntsc>
										</rate>
										<alphatype>none</alphatype>
										<pixelaspectratio>square</pixelaspectratio>
										<anamorphic>FALSE</anamorphic>
										<file id="file-9">
											<name>HD Bars and Tone</name>
											<mediaSource>Slug</mediaSource>
											<rate>
												<timebase>30</timebase>
												<ntsc>TRUE</ntsc>
											</rate>
											<duration>1294705</duration>
											<timecode>
												<rate>
													<timebase>30</timebase>
													<ntsc>TRUE</ntsc>
												</rate>
												<string>00;00;00;00</string>
												<frame>0</frame>
												<displayformat>DF</displayformat>
											</timecode>
											<media>
												<video>
													<samplecharacteristics>
														<rate>
															<timebase>30</timebase>
															<ntsc>TRUE</ntsc>
														</rate>
														<width>1920</width>
														<height>1080</height>
														<anamorphic>FALSE</anamorphic>
														<pixelaspectratio>square</pixelaspectratio>
														<fielddominance>none</fielddominance>
													</samplecharacteristics>
												</video>
												<audio>
													<samplecharacteristics>
														<depth>16</depth>
														<samplerate>48000</samplerate>
													</samplecharacteristics>
													<channelcount>2</channelcount>
												</audio>
											</media>
										</file>
										<link>
											<linkclipref>clipitem-22</linkclipref>
											<mediatype>video</mediatype>
											<trackindex>1</trackindex>
											<clipindex>1</clipindex>
										</link>
										<link>
											<linkclipref>clipitem-23</linkclipref>
											<mediatype>audio</mediatype>
											<trackindex>1</trackindex>
											<clipindex>1</clipindex>
											<groupindex>1</groupindex>
										</link>
										<link>
											<linkclipref>clipitem-24</linkclipref>
											<mediatype>audio</mediatype>
											<trackindex>2</trackindex>
											<clipindex>1</clipindex>
											<groupindex>1</groupindex>
										</link>
									</clipitem>
								</track>
							</video>
							<audio>
								<track>
									<clipitem id="clipitem-23">
										<masterclipid>masterclip-9</masterclipid>
										<name>HD Bars and Tone</name>
										<rate>
											<timebase>30</timebase>
											<ntsc>TRUE</ntsc>
										</rate>
										<file id="file-9"/>
										<sourcetrack>
											<mediatype>audio</mediatype>
											<trackindex>1</trackindex>
										</sourcetrack>
										<link>
											<linkclipref>clipitem-22</linkclipref>
											<mediatype>video</mediatype>
											<trackindex>1</trackindex>
											<clipindex>1</clipindex>
										</link>
										<link>
											<linkclipref>clipitem-23</linkclipref>
											<mediatype>audio</mediatype>
											<trackindex>1</trackindex>
											<clipindex>1</clipindex>
											<groupindex>1</groupindex>
										</link>
										<link>
											<linkclipref>clipitem-24</linkclipref>
											<mediatype>audio</mediatype>
											<trackindex>2</trackindex>
											<clipindex>1</clipindex>
											<groupindex>1</groupindex>
										</link>
									</clipitem>
								</track>
								<track>
									<clipitem id="clipitem-24">
										<masterclipid>masterclip-9</masterclipid>
										<name>HD Bars and Tone</name>
										<rate>
											<timebase>30</timebase>
											<ntsc>TRUE</ntsc>
										</rate>
										<file id="file-9"/>
										<sourcetrack>
											<mediatype>audio</mediatype>
											<trackindex>2</trackindex>
										</sourcetrack>
										<link>
											<linkclipref>clipitem-22</linkclipref>
											<mediatype>video</mediatype>
											<trackindex>1</trackindex>
											<clipindex>1</clipindex>
										</link>
										<link>
											<linkclipref>clipitem-23</linkclipref>
											<mediatype>audio</mediatype>
											<trackindex>1</trackindex>
											<clipindex>1</clipindex>
											<groupindex>1</groupindex>
										</link>
										<link>
											<linkclipref>clipitem-24</linkclipref>
											<mediatype>audio</mediatype>
											<trackindex>2</trackindex>
											<clipindex>1</clipindex>
											<groupindex>1</groupindex>
										</link>
									</clipitem>
								</track>
							</audio>
						</media>
						<logginginfo>
							<description></description>
							<scene></scene>
							<shottake></shottake>
							<lognote></lognote>
							<good></good>
							<originalvideofilename></originalvideofilename>
							<originalaudiofilename></originalaudiofilename>
						</logginginfo>
						<colorinfo>
							<lut></lut>
							<lut1></lut1>
							<asc_sop></asc_sop>
							<asc_sat></asc_sat>
							<lut2></lut2>
						</colorinfo>
						<labels>
							<label2>Iris</label2>
						</labels>
					</clip>
				</children>
			</bin>
			<clip id="masterclip-10" explodedTracks="true">
				<uuid>87be24b0-9963-485a-b1a6-b5a0cfb5a5e2</uuid>
				<masterclipid>masterclip-10</masterclipid>
				<ismasterclip>TRUE</ismasterclip>
				<duration>150</duration>
				<rate>
					<timebase>30</timebase>
					<ntsc>TRUE</ntsc>
				</rate>
				<in>0</in>
				<out>125</out>
				<name>logo-web.png</name>
				<media>
					<video>
						<track>
							<clipitem id="clipitem-25">
								<masterclipid>masterclip-10</masterclipid>
								<name>logo-web.png</name>
								<rate>
									<timebase>30</timebase>
									<ntsc>TRUE</ntsc>
								</rate>
								<alphatype>straight</alphatype>
								<pixelaspectratio>square</pixelaspectratio>
								<anamorphic>FALSE</anamorphic>
								<file id="file-10">
									<name>logo-web.png</name>
									<pathurl>file://localhost/D%3a/portaflio%20pagina%20web/logo/logo-web.png</pathurl>
									<rate>
										<timebase>30</timebase>
										<ntsc>TRUE</ntsc>
									</rate>
									<timecode>
										<rate>
											<timebase>30</timebase>
											<ntsc>TRUE</ntsc>
										</rate>
										<string>00;00;00;00</string>
										<frame>0</frame>
										<displayformat>DF</displayformat>
									</timecode>
									<media>
										<video>
											<samplecharacteristics>
												<rate>
													<timebase>30</timebase>
													<ntsc>TRUE</ntsc>
												</rate>
												<width>55</width>
												<height>52</height>
												<anamorphic>FALSE</anamorphic>
												<pixelaspectratio>square</pixelaspectratio>
												<fielddominance>none</fielddominance>
											</samplecharacteristics>
										</video>
									</media>
								</file>
							</clipitem>
						</track>
					</video>
				</media>
				<logginginfo>
					<description></description>
					<scene></scene>
					<shottake></shottake>
					<lognote></lognote>
					<good></good>
					<originalvideofilename></originalvideofilename>
					<originalaudiofilename></originalaudiofilename>
				</logginginfo>
				<colorinfo>
					<lut></lut>
					<lut1></lut1>
					<asc_sop></asc_sop>
					<asc_sat></asc_sat>
					<lut2></lut2>
				</colorinfo>
				<labels>
					<label2>Lavender</label2>
				</labels>
			</clip>
			<clip id="masterclip-11" explodedTracks="true">
				<uuid>6d8be4a7-b76a-4994-babe-493884de9571</uuid>
				<masterclipid>masterclip-11</masterclipid>
				<ismasterclip>TRUE</ismasterclip>
				<duration>150</duration>
				<rate>
					<timebase>30</timebase>
					<ntsc>TRUE</ntsc>
				</rate>
				<in>0</in>
				<out>125</out>
				<name>prueba-logo.png</name>
				<media>
					<video>
						<track>
							<clipitem id="clipitem-26">
								<masterclipid>masterclip-11</masterclipid>
								<name>prueba-logo.png</name>
								<rate>
									<timebase>30</timebase>
									<ntsc>TRUE</ntsc>
								</rate>
								<alphatype>straight</alphatype>
								<pixelaspectratio>square</pixelaspectratio>
								<anamorphic>FALSE</anamorphic>
								<file id="file-11">
									<name>prueba-logo.png</name>
									<pathurl>file://localhost/D%3a/portaflio%20pagina%20web/logo/prueba-logo.png</pathurl>
									<rate>
										<timebase>30</timebase>
										<ntsc>TRUE</ntsc>
									</rate>
									<timecode>
										<rate>
											<timebase>30</timebase>
											<ntsc>TRUE</ntsc>
										</rate>
										<string>00;00;00;00</string>
										<frame>0</frame>
										<displayformat>DF</displayformat>
									</timecode>
									<media>
										<video>
											<samplecharacteristics>
												<rate>
													<timebase>30</timebase>
													<ntsc>TRUE</ntsc>
												</rate>
												<width>566</width>
												<height>499</height>
												<anamorphic>FALSE</anamorphic>
												<pixelaspectratio>square</pixelaspectratio>
												<fielddominance>none</fielddominance>
											</samplecharacteristics>
										</video>
									</media>
								</file>
							</clipitem>
						</track>
					</video>
				</media>
				<logginginfo>
					<description></description>
					<scene></scene>
					<shottake></shottake>
					<lognote></lognote>
					<good></good>
					<originalvideofilename></originalvideofilename>
					<originalaudiofilename></originalaudiofilename>
				</logginginfo>
				<colorinfo>
					<lut></lut>
					<lut1></lut1>
					<asc_sop></asc_sop>
					<asc_sat></asc_sat>
					<lut2></lut2>
				</colorinfo>
				<labels>
					<label2>Lavender</label2>
				</labels>
			</clip>
			<clip id="masterclip-12" explodedTracks="true">
				<uuid>dd635383-6091-487e-9405-e67fc1dd9603</uuid>
				<masterclipid>masterclip-12</masterclipid>
				<ismasterclip>TRUE</ismasterclip>
				<duration>150</duration>
				<rate>
					<timebase>30</timebase>
					<ntsc>TRUE</ntsc>
				</rate>
				<in>0</in>
				<out>125</out>
				<name>prueba-logo-video.png</name>
				<media>
					<video>
						<track>
							<clipitem id="clipitem-27">
								<masterclipid>masterclip-12</masterclipid>
								<name>prueba-logo-video.png</name>
								<rate>
									<timebase>30</timebase>
									<ntsc>TRUE</ntsc>
								</rate>
								<alphatype>straight</alphatype>
								<pixelaspectratio>square</pixelaspectratio>
								<anamorphic>FALSE</anamorphic>
								<file id="file-12">
									<name>prueba-logo-video.png</name>
									<pathurl>file://localhost/D%3a/portaflio%20pagina%20web/logo/prueba-logo-video.png</pathurl>
									<rate>
										<timebase>30</timebase>
										<ntsc>TRUE</ntsc>
									</rate>
									<timecode>
										<rate>
											<timebase>30</timebase>
											<ntsc>TRUE</ntsc>
										</rate>
										<string>00;00;00;00</string>
										<frame>0</frame>
										<displayformat>DF</displayformat>
									</timecode>
									<media>
										<video>
											<samplecharacteristics>
												<rate>
													<timebase>30</timebase>
													<ntsc>TRUE</ntsc>
												</rate>
												<width>566</width>
												<height>590</height>
												<anamorphic>FALSE</anamorphic>
												<pixelaspectratio>square</pixelaspectratio>
												<fielddominance>none</fielddominance>
											</samplecharacteristics>
										</video>
									</media>
								</file>
							</clipitem>
						</track>
					</video>
				</media>
				<logginginfo>
					<description></description>
					<scene></scene>
					<shottake></shottake>
					<lognote></lognote>
					<good></good>
					<originalvideofilename></originalvideofilename>
					<originalaudiofilename></originalaudiofilename>
				</logginginfo>
				<colorinfo>
					<lut></lut>
					<lut1></lut1>
					<asc_sop></asc_sop>
					<asc_sat></asc_sat>
					<lut2></lut2>
				</colorinfo>
				<labels>
					<label2>Lavender</label2>
				</labels>
			</clip>
			<bin>
				<name>Easy Transition</name>
				<labels>
					<label2>Mango</label2>
				</labels>
				<children>
					<bin>
						<name>Easy Transition 01</name>
						<labels>
							<label2>Mango</label2>
						</labels>
						<children>
						</children>
					</bin>
				</children>
			</bin>
		</children>
	</project>
</xmeml>
